<svg width="44" height="43" viewBox="0 0 44 43" fill="none" xmlns="http://www.w3.org/2000/svg">
<path d="M34.6312 8.7971C32.9884 7.1382 31.0318 5.82287 28.8755 4.92775C26.7192 4.03262 24.4064 3.57561 22.0717 3.58335C12.2892 3.58335 4.31625 11.5563 4.31625 21.3388C4.31625 24.4742 5.14041 27.52 6.68125 30.2075L4.17291 39.4167L13.5792 36.9442C16.1771 38.3596 19.0975 39.1121 22.0717 39.1121C31.8542 39.1121 39.8271 31.1392 39.8271 21.3567C39.8271 16.6088 37.9817 12.1475 34.6312 8.7971ZM22.0717 36.1021C19.42 36.1021 16.8221 35.3854 14.5467 34.0417L14.0092 33.7192L8.41916 35.1883L9.90625 29.7417L9.54791 29.1863C8.07435 26.8339 7.29207 24.1145 7.29041 21.3388C7.29041 13.2046 13.9196 6.57543 22.0537 6.57543C25.9954 6.57543 29.7042 8.11627 32.4812 10.9113C33.8566 12.2799 34.9464 13.9079 35.6877 15.701C36.4289 17.4941 36.8067 19.4165 36.7992 21.3567C36.835 29.4908 30.2058 36.1021 22.0717 36.1021ZM30.17 25.0654C29.7221 24.8504 27.5362 23.7754 27.1421 23.6142C26.73 23.4708 26.4433 23.3992 26.1387 23.8292C25.8342 24.2771 24.9921 25.2804 24.7412 25.5671C24.4904 25.8717 24.2217 25.9075 23.7737 25.6746C23.3258 25.4596 21.8925 24.9758 20.2083 23.4708C18.8825 22.2883 18.0046 20.8371 17.7358 20.3892C17.485 19.9413 17.7 19.7083 17.9329 19.4754C18.13 19.2783 18.3808 18.9558 18.5958 18.705C18.8108 18.4542 18.9004 18.2571 19.0437 17.9704C19.1871 17.6658 19.1154 17.415 19.0079 17.2C18.9004 16.985 18.0046 14.7992 17.6462 13.9033C17.2879 13.0433 16.9117 13.1508 16.6429 13.1329H15.7829C15.4783 13.1329 15.0125 13.2404 14.6004 13.6883C14.2062 14.1363 13.0596 15.2113 13.0596 17.3971C13.0596 19.5829 14.6542 21.6971 14.8692 21.9838C15.0842 22.2883 18.0046 26.7675 22.4479 28.6846C23.505 29.1504 24.3292 29.4192 24.9742 29.6163C26.0312 29.9567 26.9987 29.9029 27.7692 29.7954C28.6292 29.67 30.4029 28.7204 30.7612 27.6813C31.1375 26.6421 31.1375 25.7642 31.0121 25.5671C30.8867 25.37 30.6179 25.2804 30.17 25.0654Z" fill="#347355"/>
</svg>
