<svg width="105" height="308" viewBox="0 0 105 308" fill="none" xmlns="http://www.w3.org/2000/svg">
<path d="M46.9172 0.577148C42.9933 1.85004 39.484 4.14124 38.2718 6.24149C36.1663 9.86923 36.2301 9.58282 36.6448 12.7969C36.8362 14.4198 37.3785 16.711 37.8252 17.8884C38.6865 20.1796 38.846 21.2934 38.3037 21.2934C37.538 21.2934 37.3147 22.98 37.7933 25.3348C38.3037 27.9124 39.2288 29.4717 40.2816 29.6308C40.8558 29.6945 41.0791 30.1082 41.4939 31.7947C41.781 32.9403 42.2595 34.3087 42.5466 34.8815C42.9294 35.5816 43.089 36.6954 43.089 38.3501C43.089 41.055 43.1209 41.0232 39.5798 44.9055C38.0804 46.5603 37.3147 47.0694 34.1564 48.5651C30.6153 50.2516 23.3736 53.1475 20.4387 54.1021L19.0031 54.5477L17.9503 57.6344C16.5466 61.8349 15.1429 68.6449 14.2178 75.8685C13.1331 84.3333 12.846 86.2108 12.1442 90.0294C11.8252 91.8751 11.3147 94.9301 11.0276 96.8712C10.2301 102.217 9.52822 105.686 9.0816 106.641C8.47546 107.818 8.53926 111.064 9.1454 112.623C9.52822 113.578 9.59202 114.119 9.36871 114.628C8.98589 115.455 9.49632 120.77 10.7086 129.33C12.6546 142.695 13.8988 146.164 16.8337 146.418C17.8546 146.514 18.046 146.673 18.4288 147.755C18.8436 149.028 18.8436 149.028 17.2485 151.542C16.3871 152.91 15.6534 154.183 15.6534 154.342C15.6534 154.788 18.2055 155.901 19.2583 155.901C19.7368 155.901 20.1196 156.092 20.1196 156.283C20.1196 156.506 20.3429 159.688 20.5982 163.38C20.8534 167.039 21.2681 173.276 21.5552 177.222C21.8104 181.168 22.0975 184.955 22.1933 185.655C22.608 189.028 25.0006 225.719 25.3834 234.98C25.4791 237.589 25.862 244.399 26.181 250.095C26.5319 255.791 26.9466 264.097 27.138 268.552C27.5209 277.335 27.5209 277.303 29.435 278.29C29.9135 278.544 30.9344 278.735 31.7319 278.735C32.5294 278.735 33.2313 278.831 33.2951 278.99C33.3589 279.117 33.2951 280.645 33.1356 282.395C32.8485 285.418 32.7847 285.641 31.7638 286.691C31.1896 287.295 30.2963 288.664 29.8178 289.714C29.1798 291.019 27.9994 292.578 25.9896 294.646C23.565 297.16 20.7577 300.852 20.3748 302.029C20.311 302.188 15.8129 302.411 10.3896 302.57L0.5 302.825L10.4853 302.793C18.046 302.761 20.4387 302.857 20.4387 303.143C20.4387 303.398 19.7368 303.557 18.4607 303.652L16.4509 303.748L18.3969 303.811C20.2791 303.875 20.3748 303.907 20.5344 304.798C20.8215 306.198 22.0656 306.548 25.9577 306.325C29.6902 306.134 33.2313 305.402 35.7196 304.32L37.4104 303.557H54.0951H70.7478L71.6092 304.543C73.4276 306.58 77.3834 307.662 83.7957 307.916C88.1025 308.075 88.6767 308.044 89.4742 307.503C90.3037 306.993 90.3675 306.834 90.208 305.402L90.0166 303.875L91.0374 303.843L92.0583 303.779L91.1012 303.652C90.5908 303.557 90.0166 303.366 89.8251 303.207C89.6656 303.047 92.4411 302.888 97.0031 302.857L104.5 302.825L97.0031 302.602L89.5061 302.379L88.0705 300.979C87.273 300.215 85.8055 298.942 84.8166 298.147C83.8276 297.351 82.9982 296.619 82.9663 296.524C82.9344 295.919 77.9896 287.646 77.192 286.85C76.4264 286.023 76.2669 285.609 76.2669 284.209V282.586L77.8301 281.886C80.8288 280.613 80.5098 283.827 80.9564 250.286C81.2117 229.188 81.435 220.087 81.7221 218.719C82.1049 216.841 82.073 216.65 81.116 213.945L80.127 211.113L79.9675 198.543C79.808 184.86 78.819 168.567 77.7663 162.425C77.4472 160.675 77.4472 159.847 77.7025 159.052C78.0534 158.002 78.1491 157.97 80.2865 157.715C82.8386 157.461 85.7098 156.665 85.9969 156.188C86.1245 156.029 85.965 154.66 85.6779 153.197L85.1675 150.555L86.284 147.055C88.7405 139.227 93.6215 118.001 93.9405 113.482C94.0362 112.305 94.1957 111 94.3233 110.555C94.4828 109.982 94.2914 109.377 93.6853 108.486C92.9196 107.309 92.8558 106.895 92.5368 101.263C91.516 82.2966 90.0804 70.5861 87.7196 61.2303C86.6988 57.2207 85.1994 54.3885 84.1147 54.3885C83.4448 54.3885 73.8742 50.6017 70.365 48.9788C66.2178 47.0376 63.3147 44.4918 62.0706 41.7551C61.6558 40.8641 61.0178 39.9731 60.6669 39.7503C59.7098 39.2411 59.7417 36.5045 60.7945 33.6404C61.2411 32.4312 61.592 31.1583 61.592 30.8401C61.592 30.4901 61.9748 30.0127 62.4853 29.7581C63.9847 28.9944 64.4951 28.1352 65.0055 25.5258C65.4521 23.2664 65.4521 22.9164 65.0055 21.8344C64.6546 21.0706 64.3037 20.657 63.889 20.657C63.3147 20.657 63.3147 20.5615 63.6975 19.1295C63.9209 18.3021 64.3356 16.9974 64.6227 16.2018C64.9098 15.4063 65.2288 13.7516 65.3245 12.5105C65.484 10.633 65.3883 10.0602 64.9098 9.23279C64.3675 8.30994 62.262 6.65518 61.6239 6.65518C61.4644 6.65518 61.2411 6.30515 61.1454 5.89145C60.7945 4.5231 58.0509 1.85004 56.0092 0.895355C54.3503 0.0997925 53.7123 -0.0274963 51.3834 0.0043335C49.6926 0.0043335 48.0018 0.227081 46.9172 0.577148ZM55.8178 1.9455C58.689 3.40933 60.3798 5.47775 60.5712 7.70532C60.6669 8.78726 60.5393 9.8056 60.2202 10.5693C59.9331 11.2376 59.8374 11.7467 60.0288 11.7467C60.5074 11.7467 61.273 9.71011 61.273 8.4054C61.273 7.67349 61.4325 7.29163 61.7196 7.29163C62.5172 7.29163 64.0804 9.39191 64.3037 10.7921C64.6227 12.606 64.3037 12.7014 63.5699 11.0467C63.2509 10.2829 62.7086 9.45554 62.3896 9.20096C61.8472 8.78726 61.8791 8.85092 62.4534 9.67831C63.6975 11.4604 63.889 12.8923 63.2828 15.7245L62.7405 18.2385L62.3896 16.8383C62.1663 16.0428 61.8472 15.0562 61.592 14.6107C61.0178 13.497 59.646 12.065 59.1356 12.065C58.8166 12.065 58.7847 11.9059 59.0399 11.4604C59.4546 10.633 59.4546 9.61465 59.008 9.32825C58.7847 9.20096 58.7209 9.32825 58.8485 9.71011C58.9442 10.0602 58.8485 10.6648 58.6252 11.1103C58.2423 11.8422 58.3061 12.0013 59.3908 13.2742C60.7945 14.8972 61.5282 17.3156 61.8791 21.4525L62.1025 24.3165L62.4853 22.98C62.9638 21.3571 63.4423 21.007 64.0485 21.8026C64.9098 22.9164 63.9528 28.0397 62.7724 28.6762C62.1982 28.9626 62.1663 28.8989 62.3896 26.9578C62.7405 23.9665 62.1344 24.9848 61.1135 29.249C59.9331 34.0541 59.3589 35.327 57.6043 37.0136C55.4669 39.1139 53.0423 40.1958 51.0644 39.9731C48.2571 39.623 45.1307 37.4909 43.5675 34.8497C43.1528 34.1178 42.3552 31.8266 41.8129 29.7263C41.2705 27.626 40.6963 25.7804 40.5368 25.6212C40.0902 25.1757 40.1221 25.844 40.6006 27.3715C41.0153 28.8353 40.792 29.249 39.8988 28.4534C38.5908 27.276 37.7613 22.3754 38.846 22.0253C39.0693 21.9299 39.5479 22.5027 39.9626 23.2664L40.6963 24.6347L40.8877 21.6116C41.111 18.2703 42.0043 15.4381 43.1847 14.388C45.2902 12.4468 48.7994 11.6194 53.7123 11.874L57.4767 12.0968L57.381 10.7284C57.2853 9.39191 57.2534 9.32825 55.084 8.24631C52.6595 7.03705 50.1393 6.71884 47.5552 7.228C46.2472 7.51437 46.3748 7.5462 49.0546 7.57803C51.1601 7.60986 52.5 7.80078 53.7442 8.27811C55.4988 8.91455 57.2534 10.5375 57.0301 11.2376C56.8706 11.7467 55.4669 11.6831 55.2755 11.1421C55.1798 10.8239 55.3393 10.7921 55.8816 10.9512C57.0939 11.3012 56.2325 10.633 54.2865 9.64648C52.2129 8.62817 49.1822 8.30994 47.6509 8.94638C46.662 9.36008 46.7258 9.39191 48.927 9.39191C50.6178 9.39191 51.6067 9.58282 52.6595 10.092C53.4571 10.4738 53.808 10.7284 53.4571 10.633C50.9687 9.90106 47.0448 10.3148 45.6411 11.4285C44.1098 12.6378 42.9294 13.1151 40.9834 13.2742C39.165 13.4015 38.9098 13.3379 38.1761 12.606C37.2509 11.6831 37.0595 9.90106 37.7613 8.62817L38.1761 7.89624L38.6227 8.72363C39.1969 9.77377 41.2705 10.8557 42.3871 10.6966C43.1528 10.6011 43.1847 10.5693 42.6104 10.3466C39.9626 9.39191 38.6546 8.02353 39.1012 6.65518C39.2607 6.14603 39.4202 6.1142 40.0902 6.33698C41.3663 6.84613 41.7491 6.68701 40.6963 6.1142C39.5479 5.47775 40.1221 5.19138 41.5577 5.6687C42.1 5.85962 43.2166 5.98691 44.0141 5.98691L45.4816 5.95511L43.8546 5.70053C42.9613 5.57324 41.9086 5.28683 41.4939 5.06409C40.7601 4.68222 40.8558 4.58673 43.8227 3.09109C49.4693 0.290741 52.0853 0.0361633 55.8178 1.9455ZM38.527 13.6879C38.9417 14.1016 40.4092 14.1652 41.4939 13.8152C42.2276 13.5924 42.1957 13.6243 41.2387 14.5789C40.154 15.6927 39.7074 17.1884 40.0583 18.7158C40.5049 20.7843 39.7712 20.3069 39.0693 18.0794C37.6975 13.847 37.538 12.7014 38.527 13.6879ZM41.0472 16.6474C40.5368 17.9203 40.3454 18.2067 40.2497 17.6975C40.154 16.9974 41.0791 14.929 41.4939 14.929C41.6215 14.929 41.4301 15.6927 41.0472 16.6474ZM46.2791 38.8593C48.9589 41.2778 52.1491 43.2508 53.3613 43.2508C54.5098 43.2508 57.3172 40.705 58.3061 38.7957L58.9761 37.4591L59.1994 39.3684C59.4865 41.8188 59.2632 42.4552 57.6362 44.1418C56.2006 45.6693 50.9687 49.9334 50.554 49.9334C50.4264 49.9334 50.3945 49.838 50.5221 49.7425C50.6178 49.647 49.7245 48.7242 48.5761 47.7377C45.6411 45.2237 44.4288 43.7599 44.2374 42.5507C43.9822 40.7686 43.7589 36.8863 43.9184 36.8863C44.0141 36.8863 45.0669 37.7773 46.2791 38.8593ZM61.1135 44.9691C61.3687 48.1196 61.1773 48.9788 59.1356 52.702L57.7319 55.3432L55.6583 52.9884C54.5417 51.6837 53.2975 50.4426 52.9147 50.188C52.2767 49.7425 52.3405 49.6788 54.9883 47.6104C57.9871 45.2556 59.9331 42.9962 60.2202 41.5005L60.4436 40.5459L60.6669 41.4051C60.7945 41.8824 60.9859 43.5053 61.1135 44.9691ZM45.8325 46.4648C46.8853 47.4195 48.1614 48.5969 48.7356 49.0424L49.7245 49.838L48.927 50.2835C48.4804 50.5062 47.6828 51.3654 47.1405 52.161C46.5982 52.9565 45.8325 54.0067 45.4178 54.484L44.684 55.4068L43.4718 52.8929C42.3871 50.5699 42.2914 50.2198 42.2914 47.5468C42.3233 45.9557 42.4509 44.11 42.5785 43.4417L42.8337 42.1688L43.408 43.4417C43.727 44.11 44.8117 45.4783 45.8325 46.4648ZM68.0681 51.9064C69.0571 53.4339 69.8865 54.834 69.8865 54.9932C69.8865 55.1841 69.3442 55.566 68.7061 55.8842C67.5258 56.3933 67.5258 56.4252 68.3552 56.5206C68.8018 56.5843 70.0141 56.4252 71.0031 56.1706C72.6939 55.7251 72.8215 55.7569 72.662 56.2342C71.6092 59.671 66.9515 71.5407 64.4313 77.2051C59.5503 88.2156 58.7847 89.934 58.4018 91.0796C57.7319 93.2117 57.7 92.1297 58.3699 88.5656C59.1675 84.2378 60.7307 71.668 61.5601 62.6623C61.9429 58.9073 62.2939 54.8977 62.4215 53.7839L62.6129 51.7473L64.9736 54.1021C66.2816 55.375 67.3344 56.2661 67.3344 56.0751C67.3344 55.8842 66.2497 54.7386 64.9417 53.5293L62.5491 51.3018V49.5834C62.5491 48.6287 62.6448 47.3558 62.7405 46.7194L62.9319 45.5738L64.5908 47.3558C65.484 48.3423 67.0472 50.3789 68.0681 51.9064ZM40.5049 46.974C40.3454 47.6422 40.154 48.8515 40.0583 49.6788C39.8669 51.0472 39.6117 51.3972 37.0914 53.943C34.0926 56.9025 34.3798 57.1571 37.4742 54.2612C38.527 53.2748 39.4202 52.5428 39.484 52.6065C39.5479 52.6701 39.4521 54.7068 39.2288 57.1252C38.846 61.8349 39.0374 74.2774 39.6117 83.6332C39.7712 86.4972 39.8669 88.8838 39.8031 88.9475C39.6436 89.1066 34.284 74.1183 33.008 69.9814C31.9871 66.7356 29.116 56.1706 29.2117 56.0433C29.2436 56.0115 30.1049 56.2661 31.1258 56.6161C32.1466 56.9661 33.2313 57.2525 33.5822 57.2525C34.4755 57.2525 34.2521 56.5843 33.1994 56.2024C32.689 56.0115 32.2423 55.6933 32.2423 55.5023C32.2423 54.7704 35.8472 50.3153 38.208 48.1196C39.5798 46.8467 40.6963 45.7965 40.7282 45.7965C40.7601 45.7965 40.6325 46.3375 40.5049 46.974ZM70.7798 50.8245C72.4706 51.6837 75.6926 53.052 77.9577 53.9112C80.1908 54.7704 82.0092 55.6296 82.0092 55.8524C82.0092 56.0433 81.3393 58.9073 80.5417 62.2168C79.7442 65.5263 78.3086 72.0817 77.3834 76.8232C75.4693 86.4653 74.7037 88.8838 71.3859 95.8211C70.1098 98.4942 68.8337 101.199 68.5785 101.804L68.1319 102.917L67.9724 100.69C67.8767 99.2897 67.7172 101.517 67.5577 106.577C67.3982 111.032 67.1429 115.678 66.9834 116.887C66.8239 118.192 66.792 119.21 66.9834 119.433C67.1429 119.624 67.3663 120.42 67.4939 121.215C67.781 123.284 68.2914 124.747 69.0252 125.798C69.6632 126.72 69.6632 126.72 72.4706 126.561C75.4374 126.37 75.9479 126.561 75.9479 127.771C75.9479 128.948 74.1294 133.562 72.4067 136.744C70.6521 140.022 69.5675 142.823 69.5675 144.095C69.5675 144.732 69.8546 144.445 70.7798 142.695C72.0877 140.245 74.4804 136.776 74.8632 136.776C74.9908 136.776 75.3417 137.667 75.6288 138.781C75.9479 139.895 76.4902 141.932 76.873 143.332C78.3086 148.614 77.4791 153.356 75.0865 153.356C72.1834 153.356 69.1209 149.155 65.6436 140.309C62.3896 132.067 60.0926 123.316 58.5613 113.419C58.0828 110.427 57.4767 106.418 57.1577 104.509L56.5834 101.008L57.7638 97.5077C58.4018 95.5665 60.3798 90.5704 62.1344 86.3699C63.889 82.1693 65.516 78.1916 65.7393 77.5233C65.9307 76.855 66.2816 76.2504 66.5049 76.2186C66.6963 76.155 68.3871 75.8685 70.2374 75.614C73.7147 75.073 75.7883 74.4684 75.0546 74.2138C74.7037 74.0865 70.4288 74.6911 67.5896 75.2639C66.7282 75.423 66.7282 75.423 67.0472 74.5002C67.3344 73.641 67.4939 73.5455 69.5037 73.3546C72.3429 73.0682 75.9479 72.2408 75.9479 71.8589C75.9479 71.5407 73.619 71.7317 70.5564 72.2408C67.6215 72.7181 67.5896 72.7181 68.1957 71.318C69.089 69.2177 73.7147 55.6296 73.7147 55.1205C73.7147 54.7068 73.4276 54.6431 72.1196 54.7704C71.2583 54.8659 70.5245 54.834 70.5245 54.7068C70.5245 54.5158 68.9613 51.8428 67.8448 50.1562C67.5258 49.6788 67.3663 49.297 67.462 49.297C67.5896 49.297 69.0571 49.9971 70.7798 50.8245ZM33.6779 51.9064C32.8485 52.9884 31.9871 54.2931 31.7319 54.7386C31.3491 55.5023 31.1896 55.566 29.8497 55.4387C28.8607 55.3114 28.4141 55.375 28.4141 55.6296C28.4141 57.6026 32.5933 72.75 36.1982 83.8241C37.8571 88.8838 39.3883 93.6254 39.5798 94.3573C39.9307 95.5347 39.835 95.9802 38.4951 100.244C37.6656 102.758 36.7086 105.622 36.3577 106.577C35.4325 108.932 29.9454 120.292 29.7859 120.133C29.6902 120.07 30.1687 117.938 30.8386 115.424C32.5613 108.741 32.4975 106.991 30.392 96.7121C29.4669 92.257 28.5417 88.2792 28.3503 87.8974C28.1589 87.5473 28.127 87.0381 28.2546 86.8154C28.4141 86.5926 28.3822 86.4972 28.1908 86.6245C27.9675 86.7518 27.5209 85.5743 27.0104 83.5695C26.5638 81.7875 25.7982 78.9553 25.3515 77.3006C23.6288 70.8725 20.8215 55.7569 21.2681 55.375C21.4276 55.2477 22.4804 54.8977 23.6288 54.5795C26.0215 53.9749 31.0301 51.9382 33.3589 50.6335C34.2521 50.1244 34.9859 49.7743 35.0497 49.8061C35.1135 49.838 34.4755 50.7926 33.6779 51.9064ZM43.089 54.0703C43.6313 55.1523 44.3012 56.1069 44.5564 56.2024C44.8755 56.2979 45.5135 55.9478 46.2472 55.2159L47.4595 54.0067L48.1614 55.1523L48.8632 56.2661L48.1933 57.6026C47.2362 59.4801 46.5982 62.6941 46.5982 65.9082C46.5982 68.8995 46.311 69.4405 45.7368 67.4993C45.5454 66.8629 44.7479 64.0943 43.9503 61.3576C42.7061 57.1571 41.6853 52.161 42.0362 52.161C42.0681 52.161 42.5466 53.0202 43.089 54.0703ZM58.7209 57.3162C58.1785 59.2892 57.1896 62.4714 56.5515 64.3807L55.3712 67.8493L55.1479 65.3354C54.8926 62.3441 54.127 58.6527 53.4571 57.0298C52.9785 55.8524 52.9785 55.8524 53.9356 54.8977L54.8926 53.943L56.2006 55.1841L57.4767 56.457L58.2742 55.5023C58.689 54.9613 59.1356 54.2931 59.2313 53.9749C59.327 53.6566 59.4865 53.4657 59.5822 53.5293C59.646 53.6248 59.2632 55.3114 58.7209 57.3162ZM21.2043 60.753C21.6509 63.4579 22.289 67.3402 22.6399 69.345C24.0436 77.6188 24.6497 81.7238 24.8092 83.8241C25.0963 87.4837 22.8951 102.695 21.7785 104.954C21.0129 106.513 20.2791 106.672 20.5344 105.272C20.981 102.758 21.9061 88.1519 21.5871 88.4702C21.4914 88.5656 21.1724 91.2069 20.9172 94.3573C20.4067 100.563 19.8325 106.354 19.7049 106.418C19.5135 106.577 14.0902 107.213 13.1012 107.213C11.9847 107.213 11.9847 107.213 14.0583 105.972C15.2067 105.272 16.4828 104.349 16.9294 103.904L17.6951 103.045L15.8448 103.872C14.8239 104.318 13.4202 104.986 12.7503 105.304C12.0804 105.654 11.4742 105.941 11.4104 105.941C11.3147 105.941 11.4742 105.368 11.6975 104.668C11.9528 103.968 12.9417 99.0033 13.8988 93.6254C14.8877 88.2156 16.3233 81.0556 17.1209 77.6506C17.8865 74.2456 18.4607 71.4134 18.3969 71.3498C18.2693 71.2225 17.8865 72.209 16.8018 75.2321C16.419 76.2822 16.3233 76.3777 16.3233 75.7094C16.2914 74.4684 17.7908 65.5581 18.8755 60.753C19.8963 56.1388 20.0558 55.5023 20.2791 55.6933C20.3429 55.7887 20.7577 58.0481 21.2043 60.753ZM84.689 58.4618C85.7098 61.5485 86.9221 66.481 87.5601 69.9814C88.0387 72.6227 89.4423 86.2426 89.8251 91.6206C89.9209 93.1162 90.0804 95.1846 90.1761 96.2348C90.4951 99.6716 90.0166 97.9214 88.8681 91.3023C87.5282 83.6332 85.2951 72.4636 85.2313 73.2273C85.1994 73.7683 90.1761 105.177 90.4951 106.482C90.6865 107.118 90.6227 107.15 89.7613 106.927C89.2509 106.768 87.8791 106.577 86.7626 106.45L84.7209 106.259L86.635 106.832C90.8141 108.104 92.5687 109.282 91.8988 110.396C91.6436 110.778 91.516 110.778 91.1969 110.459C90.8779 110.141 90.8779 110.014 91.2288 109.791C91.7074 109.473 88.3258 108.614 85.5822 108.359C84.6571 108.264 83.7957 108.136 83.6362 108.041C83.4767 107.945 83.1896 106.036 82.9663 103.808C82.1368 94.9937 82.0411 94.3573 82.2006 99.0988C82.2963 101.549 82.5196 104.54 82.6791 105.75C82.8386 106.959 82.8706 108.073 82.7429 108.2C82.5834 108.327 81.9135 108.518 81.1798 108.645L79.8718 108.836L79.4252 103.013C79.1699 99.6716 78.9785 92.9889 78.9785 87.3246C79.0104 78.828 79.1061 76.7278 79.7442 72.209C80.3822 67.5311 82.4877 56.4888 82.8386 55.916C83.2534 55.2796 83.9871 56.2979 84.689 58.4618ZM59.3589 64.7626C59.008 68.4221 58.5933 72.1772 58.4337 73.0682C57.9233 75.7413 55.8816 90.8568 55.4988 94.9619C54.7331 102.886 55.8178 115.074 58.2423 125.607C58.4975 126.72 58.7209 127.834 58.7209 128.089C58.7209 128.439 53.4571 131.398 52.819 131.398C52.5319 131.398 50.6178 127.071 49.6288 124.27C48.7994 121.852 48.7994 121.565 48.9908 117.778C49.1184 115.615 49.3098 106.927 49.4374 98.526L49.6288 83.1877L51.6386 79.2417C55.2117 72.3045 58.3699 64.2852 59.3908 59.4483C59.5822 58.5573 59.8055 57.889 59.8693 57.9526C59.9331 58.0481 59.7098 61.103 59.3589 64.7626ZM42.2914 60.6575C43.4399 66.0355 46.3429 74.2138 48.7037 78.9553C49.565 80.6419 49.7245 81.2465 49.5012 81.8193C49.246 82.4239 48.4485 109.218 48.3528 120.897C48.3209 123.443 48.1614 124.493 47.7466 125.352C46.6939 127.357 44.3012 131.112 44.0779 131.016C43.9822 130.953 41.9405 129.966 39.5798 128.821C37.219 127.675 34.954 126.593 34.5393 126.434C33.8374 126.148 33.9012 126.02 36.7086 121.693C39.9307 116.792 41.5577 113.61 42.1319 111.191C42.3552 110.268 42.5785 106.004 42.6742 101.135C42.8018 94.3891 42.7061 91.0159 42.1638 84.2696C41.8129 79.6554 41.4939 73.8637 41.4301 71.4134C41.3344 66.1946 41.4301 58.2072 41.6215 58.2072C41.6853 58.2072 42.0043 59.321 42.2914 60.6575ZM27.808 97.5395C28.8288 103.681 28.2865 109.155 25.9896 116.315C24.2988 121.597 24.1393 121.661 24.0117 116.824C23.9479 114.405 24.0755 112.241 24.2988 111.446C24.6178 110.268 24.5859 109.982 24.1074 109.25C23.6926 108.614 23.6288 108.232 23.884 107.723C24.5859 106.259 26.819 95.662 26.819 93.7526C26.819 93.5617 26.9147 93.4981 27.0104 93.5935C27.1061 93.689 27.4571 95.471 27.808 97.5395ZM72.4387 98.8442C71.4816 103.713 70.8117 105.781 68.8975 109.887L68.0043 111.828L67.9724 107.659V103.49L69.3442 101.104C70.0779 99.7989 71.2583 97.5713 71.9601 96.1711C72.662 94.771 73.2681 93.689 73.3319 93.7208C73.3957 93.7526 72.981 96.0438 72.4387 98.8442ZM76.5859 97.3486C76.7454 99.3534 77.192 103.522 77.5748 106.609C78.181 111.7 78.2129 112.273 77.7663 113.164C77.3834 113.864 77.3196 114.564 77.4791 115.837C77.6068 116.792 77.6386 118.128 77.5429 118.829C77.3834 119.942 77.2877 119.624 76.6497 116.41C75.5969 111.064 75.246 104.954 75.6288 99.0033C75.7883 96.2666 75.9479 93.8799 75.9479 93.7208C75.9479 93.5617 76.0117 93.4981 76.1074 93.5617C76.1712 93.6572 76.3945 95.3438 76.5859 97.3486ZM40.2497 104.159C39.8669 106.163 38.1123 110.905 37.6337 111.191C37.5061 111.287 37.7933 110.237 38.3037 108.9C38.7822 107.532 39.4521 105.209 39.7712 103.777C40.4411 100.785 40.8239 101.104 40.2497 104.159ZM73.2043 114.787C74.0337 117.874 74.1294 117.715 70.6841 117.715C69.0252 117.715 67.6534 117.587 67.6534 117.428C67.6534 116.856 68.7061 114.246 70.3012 110.809L71.9601 107.277L72.3429 110.077C72.5344 111.605 72.9491 113.705 73.2043 114.787ZM19.4178 107.754C19.0988 107.818 18.5245 107.818 18.1417 107.754C17.727 107.691 17.9822 107.627 18.684 107.627C19.3859 107.595 19.7049 107.659 19.4178 107.754ZM30.8706 110.618C30.6153 113.482 30.0411 116.442 29.5945 116.983C29.3074 117.397 28.0951 117.556 28.0951 117.237C28.0951 117.142 28.2227 116.824 28.4141 116.506C28.9245 115.615 30.3282 110.205 30.3282 109.155C30.3282 108.614 30.4877 108.168 30.6791 108.168C30.9663 108.168 30.9982 108.868 30.8706 110.618ZM19.1307 109.25C20.1196 109.664 21.1405 110.077 21.4276 110.173C21.8104 110.3 21.938 110.778 21.9699 112.082C21.9699 113.037 22.1614 115.487 22.3528 117.524C22.7675 121.565 22.6718 121.947 21.1405 122.265C20.662 122.361 19.992 122.679 19.6411 122.965C19.035 123.443 19.0669 123.475 20.2791 123.284C22.2571 123.029 22.4166 123.316 22.7037 126.848C22.7994 128.566 23.0227 130.475 23.1503 131.112L23.3736 132.289L21.3957 132.608C20.311 132.799 18.9393 133.276 18.3331 133.658C17.2485 134.326 15.5577 136.458 15.0472 137.826C14.8558 138.367 14.6963 137.699 14.3773 135.217C13.7074 129.839 14.5049 127.675 17.8227 125.607C19.3859 124.652 18.7798 124.493 17.1528 125.448C15.6853 126.307 13.4202 128.598 13.4202 129.234C13.4202 129.425 13.3564 129.521 13.2926 129.457C13.1969 129.362 12.7822 126.466 12.3356 122.965C11.889 119.465 11.4423 116.156 11.3466 115.646C11.1871 114.914 11.3466 114.405 11.9528 113.482L12.7503 112.305H11.9847C10.9957 112.305 10.9638 111.732 11.889 110.555C13.6117 108.391 16.0362 107.945 19.1307 109.25ZM88.8043 110.205C89.9847 110.714 92.1859 112.878 91.1012 112.496C90.7503 112.337 89.6018 112.178 88.5491 112.082C86.6988 111.923 86.5712 111.955 84.5613 113.291C83.062 114.31 82.2006 115.169 81.4669 116.442C79.9994 118.892 80.1589 119.147 81.6902 116.824C82.392 115.742 83.0939 114.851 83.2534 114.851C83.4448 114.851 84.2742 114.405 85.1037 113.896C86.0288 113.323 87.0178 112.941 87.6877 112.941C89.3147 112.941 91.2607 113.61 91.2607 114.151C91.2607 115.105 89.5699 123.443 88.1982 129.266C86.9221 134.74 86.0288 138.081 84.689 142.282L84.2104 143.777L83.0939 142.536C82.4877 141.868 81.0202 140.85 79.8399 140.245C78.6595 139.672 77.6068 139.068 77.4791 138.877C77.3515 138.717 77.0963 137.635 76.873 136.49C76.5221 134.485 76.554 134.294 77.7025 130.666C78.3405 128.63 79.0423 125.925 79.2656 124.684L79.6485 122.456L80.1589 123.984C80.4779 124.811 80.7969 126.052 80.9245 126.72C81.0202 127.389 81.2117 127.866 81.2755 127.771C81.3712 127.707 81.116 126.052 80.765 124.143C79.9356 119.783 79.8718 115.805 80.6374 114.501C81.3074 113.419 83.8914 111.509 85.7098 110.841L86.954 110.364L85.1675 110.523C84.1785 110.587 82.7748 110.968 82.0092 111.35C80.5417 112.114 80.5736 112.114 80.2865 111.128C80.0632 110.459 80.3822 110.237 82.8067 109.632C83.8595 109.377 87.7196 109.727 88.8043 110.205ZM28.9245 119.242C27.9675 122.234 27.2337 123.57 26.4043 123.793C25.9258 123.92 25.5429 123.888 25.5429 123.729C25.5429 123.57 25.9896 122.361 26.5638 121.056C27.4252 119.051 27.7123 118.669 28.3503 118.669C28.9245 118.669 29.0521 118.797 28.9245 119.242ZM32.689 120.483C31.7319 122.679 26.4362 132.067 26.2767 131.908C25.862 131.494 32.7209 118.669 33.3589 118.669C33.4227 118.669 33.1356 119.497 32.689 120.483ZM72.5344 118.892C71.6092 118.956 70.046 118.956 69.0252 118.892C68.0043 118.829 68.7699 118.797 70.6841 118.797C72.6301 118.797 73.4595 118.829 72.5344 118.892ZM75.3098 121.947C75.884 123.602 76.0755 124.493 75.8202 124.557C75.6288 124.62 74.289 124.843 72.8215 125.034C70.7798 125.352 70.1098 125.352 69.727 125.034C69.2485 124.62 68.1957 122.074 67.8129 120.324L67.5896 119.274L71.0031 119.37L74.4166 119.465L75.3098 121.947ZM26.0534 127.58C25.2558 129.616 25.0325 129.935 24.9687 129.266C24.7454 127.58 25.2239 125.766 25.9577 125.416C26.3405 125.225 26.7552 125.066 26.8509 125.066C26.9466 125.034 26.5957 126.18 26.0534 127.58ZM34.0926 129.075L35.4963 129.616L35.3049 131.844C35.1773 133.085 35.0178 134.676 34.9221 135.376C34.7945 136.522 34.8264 136.554 35.0816 135.726C35.273 135.217 35.5601 133.721 35.7834 132.385C36.0067 131.048 36.1982 129.935 36.2301 129.871C36.262 129.839 38.0804 130.73 40.2816 131.876C42.4828 133.021 44.5245 133.944 44.7798 133.944C45.0669 133.944 45.7368 133.308 46.311 132.512C46.8853 131.717 47.3638 131.112 47.4276 131.176C47.4595 131.207 47.3638 132.448 47.1724 133.944C46.6939 138.145 46.7577 154.851 47.3 158.384C47.5552 160.007 47.6828 161.375 47.5871 161.439C47.4914 161.502 45.673 161.439 43.5675 161.311C38.2399 160.993 38.2718 161.057 44.2693 162.298C47.7466 163.03 47.8104 163.061 47.9699 163.952C48.0656 164.78 48.0337 164.844 47.2681 164.684C46.8215 164.589 45.0669 164.43 43.408 164.334L40.3773 164.143L42.9294 165.034L45.4816 165.925L45.3859 168.789C45.354 170.349 45.035 175.154 44.684 179.45C44.3331 183.746 43.8227 190.747 43.5675 195.043C43.2804 199.339 42.9294 204.685 42.7699 206.976C42.5785 209.236 42.2914 213.468 42.1 216.364C41.7172 221.742 41.2067 223.874 41.1429 220.151C41.1429 219.037 40.9196 216.236 40.6963 213.977L40.2497 209.84L40.4092 217.478C40.473 221.678 40.7282 226.388 40.9515 227.979C41.4301 231.511 41.4301 231.002 40.8877 255.505C40.6006 269.061 40.3454 275.776 40.1221 275.935C39.7074 276.19 35.7515 276.953 35.6239 276.794C35.4963 276.667 35.2092 266.484 34.4755 236.253C34.284 229.411 33.9969 219.673 33.8374 214.613C33.646 209.522 33.3589 195.647 33.1994 183.778C33.0399 171.908 32.8166 162.075 32.689 161.98C32.4337 161.725 32.8166 198.734 33.1994 212.386C33.3589 217.987 33.7098 231.384 33.9969 242.14C34.2521 252.896 34.5393 265.052 34.6669 269.157L34.8902 276.603L32.5933 276.444C31.3491 276.349 30.2325 276.221 30.1687 276.158C30.1049 276.062 29.8816 272.307 29.6902 267.757C28.9564 249.682 28.7012 244.208 27.9356 228.583C27.489 219.673 27.0104 210.636 26.819 208.535C26.6595 206.467 26.3724 202.744 26.181 200.293C25.7025 193.452 24.9368 185.433 24.0755 177.413C23.6288 173.436 23.3098 170.094 23.3736 170.031C23.4374 169.967 24.0436 172.958 24.7454 176.681C25.4153 180.405 26.3086 185.146 26.7233 187.246C27.3933 190.874 27.4252 190.938 27.2656 188.678C27.1699 187.374 26.5638 182.696 25.862 178.336C25.192 173.945 24.3307 168.217 23.9798 165.607C22.0656 151.542 21.9699 150.301 22.0975 146.991C22.289 143.109 22.5761 142.441 25.4472 138.527C26.4681 137.158 27.6485 135.472 28.0632 134.803C28.4779 134.135 28.8607 133.658 28.9245 133.721C28.9883 133.785 28.765 135.535 28.446 137.635C27.2975 144.7 27.3933 146.228 28.6055 139.99C29.5307 135.122 29.9454 133.626 31.0301 131.303C31.7638 129.775 32.4337 128.534 32.5294 128.534C32.6252 128.534 33.327 128.789 34.0926 129.075ZM51.8939 133.849C52.1491 133.944 53.808 133.371 55.5307 132.544C57.2853 131.748 58.9123 131.08 59.1356 131.08C59.7098 131.08 60.8902 135.344 61.273 138.877C61.4325 140.436 61.7196 143.745 61.911 146.196C62.3577 152.019 63.0914 158.097 63.6975 160.675C64.7184 165.034 67.9405 181.391 68.5785 185.337C72.7577 211.622 73.4595 217.318 74.0337 230.047C74.7037 245.799 74.9589 253.087 75.1503 261.71C75.246 266.611 75.4055 272.721 75.5012 275.298L75.6926 280.008H74.608C73.2043 280.008 69.089 278.926 68.1638 278.322C67.462 277.844 67.4301 277.558 67.0791 271.034C66.0264 252.132 65.9307 246.372 66.6006 241.344C66.8239 239.753 66.8239 239.753 67.0472 240.867C67.2386 241.853 67.2706 241.758 67.3025 240.23C67.3344 239.276 67.5577 236.603 67.8129 234.343C68.4828 228.488 68.419 224.097 67.6534 220.978C67.3344 219.578 65.484 213.786 63.5699 208.09C61.6558 202.394 59.965 197.239 59.8374 196.634C59.7098 196.029 59.0718 193.579 58.4018 191.224C57.7319 188.869 56.5834 184.764 55.8497 182.155C55.116 179.514 54.446 177.095 54.3503 176.745C54.2546 176.395 55.2755 177.572 56.6153 179.354C57.9233 181.168 59.1037 182.632 59.1994 182.632C59.327 182.632 59.327 182.537 59.2632 182.378C59.1675 182.25 58.2742 180.786 57.2853 179.132C54.4779 174.486 51.4153 168.185 51.7982 167.803C51.8939 167.708 52.6914 167.835 53.5847 168.121C54.4779 168.376 55.2117 168.535 55.2117 168.471C55.2117 168.376 54.2227 167.835 53.0104 167.23L50.8411 166.116L49.8202 163.634C48.1933 159.529 47.8423 157.333 47.6509 150.078C47.4595 143.045 48.0018 131.748 48.5761 130.125L48.927 129.107L50.1712 131.398C50.873 132.639 51.6386 133.753 51.8939 133.849ZM23.7883 134.421C23.7883 134.581 23.1822 134.835 22.4166 134.931C19.7687 135.281 16.5466 138.527 16.1 141.295C15.9724 141.963 15.7491 142.441 15.5896 142.345C14.7282 141.804 16.9933 136.649 18.6521 135.376C20.2472 134.167 23.7883 133.499 23.7883 134.421ZM22.0337 139.131C20.8534 141.55 20.3429 143.109 20.0239 145.05L19.6411 147.691L18.2374 144.732C17.0252 142.027 16.8975 141.645 17.2166 140.627C17.8227 138.654 21.0767 135.917 22.8951 135.853C23.565 135.853 23.5012 136.044 22.0337 139.131ZM65.7074 147.15C66.792 149.346 68.3871 151.987 69.408 153.292C71.1626 155.456 73.6509 157.493 74.5761 157.493C75.0865 157.493 75.1184 157.938 74.6399 158.797C74.3847 159.306 74.0975 159.402 73.3 159.243L72.2791 159.02L73.1724 159.879C73.8104 160.484 74.0337 161.025 74.0337 161.884C74.0337 162.52 74.1613 163.571 74.3209 164.175C74.4804 164.78 74.7037 165.989 74.7994 166.88C74.927 168.185 74.8951 168.376 74.5761 167.898C69.1528 159.593 68.8656 159.052 68.1957 155.901L67.7172 153.833L67.9086 155.901C67.9724 157.047 68.3233 159.243 68.6423 160.834L69.2166 163.698L69.089 161.629L68.9294 159.561L69.8227 162.266C70.3331 163.762 71.2902 166.244 71.9601 167.835C74.7356 174.486 75.0227 175.568 75.6288 182.95C76.0436 188.201 76.2031 189.156 76.235 187.119C76.235 185.655 76.3307 184.51 76.4264 184.605C77.3196 185.464 77.7982 204.08 78.0534 248.186L78.2767 279.244L77.3834 279.626C76.9049 279.849 76.4583 279.976 76.3945 279.945C76.3626 279.881 76.1393 273.835 75.9479 266.484C75.5331 249.809 74.4804 224.287 74.0337 219.864C73.4914 214.454 71.8325 201.853 71.1626 198.066C70.8117 196.125 70.1736 192.211 69.727 189.315C69.3123 186.419 68.1319 180.118 67.1748 175.313C66.2178 170.508 65.3245 165.766 65.1969 164.812L65.0055 163.061L67.5258 166.785C68.8975 168.821 70.0779 170.444 70.1417 170.412C70.2055 170.349 69.3123 168.789 68.1957 166.976C64.2399 160.611 63.6018 158.67 62.9 150.619C62.3577 144.732 61.911 140.022 61.7196 138.558C61.6239 137.604 61.8791 138.049 62.7086 140.309C63.3466 141.963 64.6865 145.05 65.7074 147.15ZM81.3393 142.982C82.2006 143.745 83.2853 145.877 83.2534 146.832C83.2534 147.278 83.062 147.087 82.5834 146.196C81.8178 144.668 80.3184 143.045 78.9147 142.186C78.3405 141.804 77.862 141.327 77.862 141.072C77.862 140.595 79.9037 141.677 81.3393 142.982ZM79.808 144.032C80.9883 145.368 81.116 145.941 80.4141 147.309C80.0632 148.01 79.6485 148.582 79.5209 148.582C79.3932 148.582 79.1061 147.628 78.9147 146.418C78.7233 145.241 78.4362 143.936 78.3086 143.523C78.1172 142.854 78.1491 142.823 78.6914 143.109C79.0423 143.3 79.5209 143.682 79.808 144.032ZM16.4509 144.127C16.738 144.636 16.8018 145.082 16.6423 145.082C16.2914 145.082 15.6534 144.064 15.6534 143.523C15.6534 142.918 15.9405 143.141 16.4509 144.127ZM51.3196 178.973C54.3184 189.76 54.5736 190.81 57.3172 204.717C58.6252 211.368 60.0607 218.687 60.5074 220.978C60.954 223.237 61.592 225.719 61.911 226.483C62.3577 227.47 62.4534 228.042 62.2301 228.615C62.0387 229.061 62.1025 231.798 62.3896 235.839C62.6448 239.403 63.0595 245.736 63.3466 249.936C63.6337 254.137 63.9847 258.783 64.1442 260.278C64.3037 261.774 64.6546 266.42 64.9417 270.621C65.2926 276.126 65.5798 278.513 65.9307 279.149C66.3135 279.817 66.3773 280.517 66.2178 282.013C65.8988 285.1 65.165 288.377 64.4632 290.032C64.0485 291.019 63.7294 292.673 63.5699 294.774L63.3466 297.988L54.8607 298.083L46.3748 298.147L45.992 294.105C45.5773 290.096 44.6521 286.214 44.046 285.991C43.8865 285.927 43.5356 284.591 43.2804 283.031C42.8975 280.549 42.8975 278.353 43.2804 266.484C44.1417 239.721 44.716 225.974 45.1626 219.546C45.4178 215.95 45.8325 209.14 46.1196 204.43C46.662 194.916 47.6509 182.155 48.3528 175.79C48.608 173.499 48.8313 171.463 48.8313 171.208C48.8313 170.221 49.2141 171.367 51.3196 178.973ZM62.0706 206.34C66.4411 218.464 67.6853 222.378 67.8767 224.606C68.0043 226.292 67.8129 227.915 66.8558 232.593C66.1859 235.839 65.5479 238.671 65.4202 238.926C65.2926 239.148 65.1012 237.366 64.9736 234.948C64.846 232.529 64.5908 230.302 64.4313 229.984C64.208 229.57 64.2399 229.061 64.4951 228.297C64.9098 227.151 64.5589 225.21 60.284 205.385C58.4018 196.634 58.2104 195.647 58.9123 197.589C59.1994 198.384 60.6031 202.298 62.0706 206.34ZM63.3466 298.783C63.4742 299.006 60.6669 299.102 55.2436 299.133C45.992 299.197 46.4386 299.165 46.0877 299.515C45.9601 299.643 48.1933 299.706 51.0963 299.674C59.5822 299.547 64.2718 299.706 64.8779 300.12C65.3245 300.47 63.3147 300.534 54.4779 300.534C43.9184 300.534 43.5675 300.502 44.7479 299.993C45.4178 299.706 45.9601 299.324 45.9601 299.133C45.9601 298.624 47.0448 298.561 55.2755 298.497C60.2202 298.497 63.219 298.592 63.3466 298.783ZM68.2276 301.202C72.8534 301.743 68.9613 301.966 54.2227 301.966C38.9736 301.966 38.2399 301.934 38.7184 301.393C39.165 300.884 40.2178 300.852 52.8828 300.915C60.3798 300.979 67.3025 301.106 68.2276 301.202ZM69.408 302.92C70.3012 303.047 63.6018 303.175 54.3184 303.207C43.2485 303.238 37.6975 303.143 37.8252 302.92C38.0485 302.538 66.9515 302.538 69.408 302.92Z" fill="#28464E"/>
</svg>
