<svg width="107" height="349" viewBox="0 0 107 349" fill="none" xmlns="http://www.w3.org/2000/svg">
<path d="M47.9172 0.577148C43.9933 1.85004 40.484 4.14124 39.2718 6.24149C37.1663 9.86923 37.2301 9.58282 37.6448 12.7969C37.8362 14.4198 38.3785 16.711 38.8252 17.8884C39.6865 20.1796 39.846 21.2934 39.3037 21.2934C38.538 21.2934 38.3147 22.98 38.7933 25.3348C39.3037 27.9124 40.2288 29.4717 41.2816 29.6308C41.8558 29.6945 42.0791 30.1082 42.4939 31.7947C42.781 32.9403 43.2595 34.3087 43.5466 34.8815C43.9294 35.5816 44.089 36.6954 44.089 38.3501C44.089 41.055 44.1209 41.0232 40.5798 44.9055C39.0804 46.5603 38.3147 47.0694 35.1564 48.5651C31.6153 50.2516 24.3736 53.1475 21.4387 54.1021L20.0031 54.5477L18.9503 57.6344C17.5466 61.8349 16.1429 68.6449 15.2178 75.8685C14.1331 84.3333 13.846 86.2108 13.1442 90.0294C12.8252 91.8751 12.3147 94.9301 12.0276 96.8712C11.2301 102.217 10.5282 105.686 10.0816 106.641C9.47546 107.818 9.53926 111.064 10.1454 112.623C10.5282 113.578 10.592 114.119 10.3687 114.628C9.98589 115.455 10.4963 120.77 11.7086 129.33C13.6546 142.695 14.8988 146.164 17.8337 146.418C18.8546 146.514 19.046 146.673 19.4288 147.755C19.8436 149.028 19.8436 149.028 18.2485 151.542C17.3871 152.91 16.6534 154.183 16.6534 154.342C16.6534 154.788 19.2055 155.901 20.2583 155.901C20.7368 155.901 21.1196 156.092 21.1196 156.283C21.1196 156.506 21.3429 159.688 21.5982 163.38C21.8534 167.039 22.2681 173.276 22.5552 177.222C22.8104 181.168 23.0975 184.955 23.1933 185.655C23.608 189.028 26.0006 225.719 26.3834 234.98C26.4791 237.589 26.862 244.399 27.181 250.095C27.5319 255.791 27.9466 264.097 28.138 268.552C28.5209 277.335 28.5209 277.303 30.435 278.29C30.9135 278.544 31.9344 278.735 32.7319 278.735C33.5294 278.735 34.2313 278.831 34.2951 278.99C34.3589 279.117 34.2951 280.645 34.1356 282.395C33.8485 285.418 33.7847 285.641 32.7638 286.691C32.1896 287.295 31.2963 288.664 30.8178 289.714C30.1798 291.019 28.9994 292.578 26.9896 294.646C24.565 297.16 21.7577 300.852 21.3748 302.029C21.311 302.188 16.8129 302.411 11.3896 302.57L1.5 302.825L11.4853 302.793C19.046 302.761 21.4387 302.857 21.4387 303.143C21.4387 303.398 20.7368 303.557 19.4607 303.652L17.4509 303.748L19.3969 303.811C21.2791 303.875 21.3748 303.907 21.5344 304.798C21.8215 306.198 23.0656 306.548 26.9577 306.325C30.6902 306.134 34.2313 305.402 36.7196 304.32L38.4104 303.557H55.0951H71.7478L72.6092 304.543C74.4276 306.58 78.3834 307.662 84.7957 307.916C89.1025 308.075 89.6767 308.044 90.4742 307.503C91.3037 306.993 91.3675 306.834 91.208 305.402L91.0166 303.875L92.0374 303.843L93.0583 303.779L92.1012 303.652C91.5908 303.557 91.0166 303.366 90.8251 303.207C90.6656 303.047 93.4411 302.888 98.0031 302.857L105.5 302.825L98.0031 302.602L90.5061 302.379L89.0705 300.979C88.273 300.215 86.8055 298.942 85.8166 298.147C84.8276 297.351 83.9982 296.619 83.9663 296.524C83.9344 295.919 78.9896 287.646 78.192 286.85C77.4264 286.023 77.2669 285.609 77.2669 284.209V282.586L78.8301 281.886C81.8288 280.613 81.5098 283.827 81.9564 250.286C82.2117 229.188 82.435 220.087 82.7221 218.719C83.1049 216.841 83.073 216.65 82.116 213.945L81.127 211.113L80.9675 198.543C80.808 184.86 79.819 168.567 78.7663 162.425C78.4472 160.675 78.4472 159.847 78.7025 159.052C79.0534 158.002 79.1491 157.97 81.2865 157.715C83.8386 157.461 86.7098 156.665 86.9969 156.188C87.1245 156.029 86.965 154.66 86.6779 153.197L86.1675 150.555L87.284 147.055C89.7405 139.227 94.6215 118.001 94.9405 113.482C95.0362 112.305 95.1957 111 95.3233 110.555C95.4828 109.982 95.2914 109.377 94.6853 108.486C93.9196 107.309 93.8558 106.895 93.5368 101.263C92.516 82.2966 91.0804 70.5861 88.7196 61.2303C87.6988 57.2207 86.1994 54.3885 85.1147 54.3885C84.4448 54.3885 74.8742 50.6017 71.365 48.9788C67.2178 47.0376 64.3147 44.4918 63.0706 41.7551C62.6558 40.8641 62.0178 39.9731 61.6669 39.7503C60.7098 39.2411 60.7417 36.5045 61.7945 33.6404C62.2411 32.4312 62.592 31.1583 62.592 30.8401C62.592 30.4901 62.9748 30.0127 63.4853 29.7581C64.9847 28.9944 65.4951 28.1352 66.0055 25.5258C66.4521 23.2664 66.4521 22.9164 66.0055 21.8344C65.6546 21.0706 65.3037 20.657 64.889 20.657C64.3147 20.657 64.3147 20.5615 64.6975 19.1295C64.9209 18.3021 65.3356 16.9974 65.6227 16.2018C65.9098 15.4063 66.2288 13.7516 66.3245 12.5105C66.484 10.633 66.3883 10.0602 65.9098 9.23279C65.3675 8.30994 63.262 6.65518 62.6239 6.65518C62.4644 6.65518 62.2411 6.30515 62.1454 5.89145C61.7945 4.5231 59.0509 1.85004 57.0092 0.895355C55.3503 0.0997925 54.7123 -0.0274963 52.3834 0.0043335C50.6926 0.0043335 49.0018 0.227081 47.9172 0.577148ZM56.8178 1.9455C59.689 3.40933 61.3798 5.47775 61.5712 7.70532C61.6669 8.78726 61.5393 9.8056 61.2202 10.5693C60.9331 11.2376 60.8374 11.7467 61.0288 11.7467C61.5074 11.7467 62.273 9.71011 62.273 8.4054C62.273 7.67349 62.4325 7.29163 62.7196 7.29163C63.5172 7.29163 65.0804 9.39191 65.3037 10.7921C65.6227 12.606 65.3037 12.7014 64.5699 11.0467C64.2509 10.2829 63.7086 9.45554 63.3896 9.20096C62.8472 8.78726 62.8791 8.85092 63.4534 9.67831C64.6975 11.4604 64.889 12.8923 64.2828 15.7245L63.7405 18.2385L63.3896 16.8383C63.1663 16.0428 62.8472 15.0562 62.592 14.6107C62.0178 13.497 60.646 12.065 60.1356 12.065C59.8166 12.065 59.7847 11.9059 60.0399 11.4604C60.4546 10.633 60.4546 9.61465 60.008 9.32825C59.7847 9.20096 59.7209 9.32825 59.8485 9.71011C59.9442 10.0602 59.8485 10.6648 59.6252 11.1103C59.2423 11.8422 59.3061 12.0013 60.3908 13.2742C61.7945 14.8972 62.5282 17.3156 62.8791 21.4525L63.1025 24.3165L63.4853 22.98C63.9638 21.3571 64.4423 21.007 65.0485 21.8026C65.9098 22.9164 64.9528 28.0397 63.7724 28.6762C63.1982 28.9626 63.1663 28.8989 63.3896 26.9578C63.7405 23.9665 63.1344 24.9848 62.1135 29.249C60.9331 34.0541 60.3589 35.327 58.6043 37.0136C56.4669 39.1139 54.0423 40.1958 52.0644 39.9731C49.2571 39.623 46.1307 37.4909 44.5675 34.8497C44.1528 34.1178 43.3552 31.8266 42.8129 29.7263C42.2705 27.626 41.6963 25.7804 41.5368 25.6212C41.0902 25.1757 41.1221 25.844 41.6006 27.3715C42.0153 28.8353 41.792 29.249 40.8988 28.4534C39.5908 27.276 38.7613 22.3754 39.846 22.0253C40.0693 21.9299 40.5479 22.5027 40.9626 23.2664L41.6963 24.6347L41.8877 21.6116C42.111 18.2703 43.0043 15.4381 44.1847 14.388C46.2902 12.4468 49.7994 11.6194 54.7123 11.874L58.4767 12.0968L58.381 10.7284C58.2853 9.39191 58.2534 9.32825 56.084 8.24631C53.6595 7.03705 51.1393 6.71884 48.5552 7.228C47.2472 7.51437 47.3748 7.5462 50.0546 7.57803C52.1601 7.60986 53.5 7.80078 54.7442 8.27811C56.4988 8.91455 58.2534 10.5375 58.0301 11.2376C57.8706 11.7467 56.4669 11.6831 56.2755 11.1421C56.1798 10.8239 56.3393 10.7921 56.8816 10.9512C58.0939 11.3012 57.2325 10.633 55.2865 9.64648C53.2129 8.62817 50.1822 8.30994 48.6509 8.94638C47.662 9.36008 47.7258 9.39191 49.927 9.39191C51.6178 9.39191 52.6067 9.58282 53.6595 10.092C54.4571 10.4738 54.808 10.7284 54.4571 10.633C51.9687 9.90106 48.0448 10.3148 46.6411 11.4285C45.1098 12.6378 43.9294 13.1151 41.9834 13.2742C40.165 13.4015 39.9098 13.3379 39.1761 12.606C38.2509 11.6831 38.0595 9.90106 38.7613 8.62817L39.1761 7.89624L39.6227 8.72363C40.1969 9.77377 42.2705 10.8557 43.3871 10.6966C44.1528 10.6011 44.1847 10.5693 43.6104 10.3466C40.9626 9.39191 39.6546 8.02353 40.1012 6.65518C40.2607 6.14603 40.4202 6.1142 41.0902 6.33698C42.3663 6.84613 42.7491 6.68701 41.6963 6.1142C40.5479 5.47775 41.1221 5.19138 42.5577 5.6687C43.1 5.85962 44.2166 5.98691 45.0141 5.98691L46.4816 5.95511L44.8546 5.70053C43.9613 5.57324 42.9086 5.28683 42.4939 5.06409C41.7601 4.68222 41.8558 4.58673 44.8227 3.09109C50.4693 0.290741 53.0853 0.0361633 56.8178 1.9455ZM39.527 13.6879C39.9417 14.1016 41.4092 14.1652 42.4939 13.8152C43.2276 13.5924 43.1957 13.6243 42.2387 14.5789C41.154 15.6927 40.7074 17.1884 41.0583 18.7158C41.5049 20.7843 40.7712 20.3069 40.0693 18.0794C38.6975 13.847 38.538 12.7014 39.527 13.6879ZM42.0472 16.6474C41.5368 17.9203 41.3454 18.2067 41.2497 17.6975C41.154 16.9974 42.0791 14.929 42.4939 14.929C42.6215 14.929 42.4301 15.6927 42.0472 16.6474ZM47.2791 38.8593C49.9589 41.2778 53.1491 43.2508 54.3613 43.2508C55.5098 43.2508 58.3172 40.705 59.3061 38.7957L59.9761 37.4591L60.1994 39.3684C60.4865 41.8188 60.2632 42.4552 58.6362 44.1418C57.2006 45.6693 51.9687 49.9334 51.554 49.9334C51.4264 49.9334 51.3945 49.838 51.5221 49.7425C51.6178 49.647 50.7245 48.7242 49.5761 47.7377C46.6411 45.2237 45.4288 43.7599 45.2374 42.5507C44.9822 40.7686 44.7589 36.8863 44.9184 36.8863C45.0141 36.8863 46.0669 37.7773 47.2791 38.8593ZM62.1135 44.9691C62.3687 48.1196 62.1773 48.9788 60.1356 52.702L58.7319 55.3432L56.6583 52.9884C55.5417 51.6837 54.2975 50.4426 53.9147 50.188C53.2767 49.7425 53.3405 49.6788 55.9883 47.6104C58.9871 45.2556 60.9331 42.9962 61.2202 41.5005L61.4436 40.5459L61.6669 41.4051C61.7945 41.8824 61.9859 43.5053 62.1135 44.9691ZM46.8325 46.4648C47.8853 47.4195 49.1614 48.5969 49.7356 49.0424L50.7245 49.838L49.927 50.2835C49.4804 50.5062 48.6828 51.3654 48.1405 52.161C47.5982 52.9565 46.8325 54.0067 46.4178 54.484L45.684 55.4068L44.4718 52.8929C43.3871 50.5699 43.2914 50.2198 43.2914 47.5468C43.3233 45.9557 43.4509 44.11 43.5785 43.4417L43.8337 42.1688L44.408 43.4417C44.727 44.11 45.8117 45.4783 46.8325 46.4648ZM69.0681 51.9064C70.0571 53.4339 70.8865 54.834 70.8865 54.9932C70.8865 55.1841 70.3442 55.566 69.7061 55.8842C68.5258 56.3933 68.5258 56.4252 69.3552 56.5206C69.8018 56.5843 71.0141 56.4252 72.0031 56.1706C73.6939 55.7251 73.8215 55.7569 73.662 56.2342C72.6092 59.671 67.9515 71.5407 65.4313 77.2051C60.5503 88.2156 59.7847 89.934 59.4018 91.0796C58.7319 93.2117 58.7 92.1297 59.3699 88.5656C60.1675 84.2378 61.7307 71.668 62.5601 62.6623C62.9429 58.9073 63.2939 54.8977 63.4215 53.7839L63.6129 51.7473L65.9736 54.1021C67.2816 55.375 68.3344 56.2661 68.3344 56.0751C68.3344 55.8842 67.2497 54.7386 65.9417 53.5293L63.5491 51.3018V49.5834C63.5491 48.6287 63.6448 47.3558 63.7405 46.7194L63.9319 45.5738L65.5908 47.3558C66.484 48.3423 68.0472 50.3789 69.0681 51.9064ZM41.5049 46.974C41.3454 47.6422 41.154 48.8515 41.0583 49.6788C40.8669 51.0472 40.6117 51.3972 38.0914 53.943C35.0926 56.9025 35.3798 57.1571 38.4742 54.2612C39.527 53.2748 40.4202 52.5428 40.484 52.6065C40.5479 52.6701 40.4521 54.7068 40.2288 57.1252C39.846 61.8349 40.0374 74.2774 40.6117 83.6332C40.7712 86.4972 40.8669 88.8838 40.8031 88.9475C40.6436 89.1066 35.284 74.1183 34.008 69.9814C32.9871 66.7356 30.116 56.1706 30.2117 56.0433C30.2436 56.0115 31.1049 56.2661 32.1258 56.6161C33.1466 56.9661 34.2313 57.2525 34.5822 57.2525C35.4755 57.2525 35.2521 56.5843 34.1994 56.2024C33.689 56.0115 33.2423 55.6933 33.2423 55.5023C33.2423 54.7704 36.8472 50.3153 39.208 48.1196C40.5798 46.8467 41.6963 45.7965 41.7282 45.7965C41.7601 45.7965 41.6325 46.3375 41.5049 46.974ZM71.7798 50.8245C73.4706 51.6837 76.6926 53.052 78.9577 53.9112C81.1908 54.7704 83.0092 55.6296 83.0092 55.8524C83.0092 56.0433 82.3393 58.9073 81.5417 62.2168C80.7442 65.5263 79.3086 72.0817 78.3834 76.8232C76.4693 86.4653 75.7037 88.8838 72.3859 95.8211C71.1098 98.4942 69.8337 101.199 69.5785 101.804L69.1319 102.917L68.9724 100.69C68.8767 99.2897 68.7172 101.517 68.5577 106.577C68.3982 111.032 68.1429 115.678 67.9834 116.887C67.8239 118.192 67.792 119.21 67.9834 119.433C68.1429 119.624 68.3663 120.42 68.4939 121.215C68.781 123.284 69.2914 124.747 70.0252 125.798C70.6632 126.72 70.6632 126.72 73.4706 126.561C76.4374 126.37 76.9479 126.561 76.9479 127.771C76.9479 128.948 75.1294 133.562 73.4067 136.744C71.6521 140.022 70.5675 142.823 70.5675 144.095C70.5675 144.732 70.8546 144.445 71.7798 142.695C73.0877 140.245 75.4804 136.776 75.8632 136.776C75.9908 136.776 76.3417 137.667 76.6288 138.781C76.9479 139.895 77.4902 141.932 77.873 143.332C79.3086 148.614 78.4791 153.356 76.0865 153.356C73.1834 153.356 70.1209 149.155 66.6436 140.309C63.3896 132.067 61.0926 123.316 59.5613 113.419C59.0828 110.427 58.4767 106.418 58.1577 104.509L57.5834 101.008L58.7638 97.5077C59.4018 95.5665 61.3798 90.5704 63.1344 86.3699C64.889 82.1693 66.516 78.1916 66.7393 77.5233C66.9307 76.855 67.2816 76.2504 67.5049 76.2186C67.6963 76.155 69.3871 75.8685 71.2374 75.614C74.7147 75.073 76.7883 74.4684 76.0546 74.2138C75.7037 74.0865 71.4288 74.6911 68.5896 75.2639C67.7282 75.423 67.7282 75.423 68.0472 74.5002C68.3344 73.641 68.4939 73.5455 70.5037 73.3546C73.3429 73.0682 76.9479 72.2408 76.9479 71.8589C76.9479 71.5407 74.619 71.7317 71.5564 72.2408C68.6215 72.7181 68.5896 72.7181 69.1957 71.318C70.089 69.2177 74.7147 55.6296 74.7147 55.1205C74.7147 54.7068 74.4276 54.6431 73.1196 54.7704C72.2583 54.8659 71.5245 54.834 71.5245 54.7068C71.5245 54.5158 69.9613 51.8428 68.8448 50.1562C68.5258 49.6788 68.3663 49.297 68.462 49.297C68.5896 49.297 70.0571 49.9971 71.7798 50.8245ZM34.6779 51.9064C33.8485 52.9884 32.9871 54.2931 32.7319 54.7386C32.3491 55.5023 32.1896 55.566 30.8497 55.4387C29.8607 55.3114 29.4141 55.375 29.4141 55.6296C29.4141 57.6026 33.5933 72.75 37.1982 83.8241C38.8571 88.8838 40.3883 93.6254 40.5798 94.3573C40.9307 95.5347 40.835 95.9802 39.4951 100.244C38.6656 102.758 37.7086 105.622 37.3577 106.577C36.4325 108.932 30.9454 120.292 30.7859 120.133C30.6902 120.07 31.1687 117.938 31.8386 115.424C33.5613 108.741 33.4975 106.991 31.392 96.7121C30.4669 92.257 29.5417 88.2792 29.3503 87.8974C29.1589 87.5473 29.127 87.0381 29.2546 86.8154C29.4141 86.5926 29.3822 86.4972 29.1908 86.6245C28.9675 86.7518 28.5209 85.5743 28.0104 83.5695C27.5638 81.7875 26.7982 78.9553 26.3515 77.3006C24.6288 70.8725 21.8215 55.7569 22.2681 55.375C22.4276 55.2477 23.4804 54.8977 24.6288 54.5795C27.0215 53.9749 32.0301 51.9382 34.3589 50.6335C35.2521 50.1244 35.9859 49.7743 36.0497 49.8061C36.1135 49.838 35.4755 50.7926 34.6779 51.9064ZM44.089 54.0703C44.6313 55.1523 45.3012 56.1069 45.5564 56.2024C45.8755 56.2979 46.5135 55.9478 47.2472 55.2159L48.4595 54.0067L49.1614 55.1523L49.8632 56.2661L49.1933 57.6026C48.2362 59.4801 47.5982 62.6941 47.5982 65.9082C47.5982 68.8995 47.311 69.4405 46.7368 67.4993C46.5454 66.8629 45.7479 64.0943 44.9503 61.3576C43.7061 57.1571 42.6853 52.161 43.0362 52.161C43.0681 52.161 43.5466 53.0202 44.089 54.0703ZM59.7209 57.3162C59.1785 59.2892 58.1896 62.4714 57.5515 64.3807L56.3712 67.8493L56.1479 65.3354C55.8926 62.3441 55.127 58.6527 54.4571 57.0298C53.9785 55.8524 53.9785 55.8524 54.9356 54.8977L55.8926 53.943L57.2006 55.1841L58.4767 56.457L59.2742 55.5023C59.689 54.9613 60.1356 54.2931 60.2313 53.9749C60.327 53.6566 60.4865 53.4657 60.5822 53.5293C60.646 53.6248 60.2632 55.3114 59.7209 57.3162ZM22.2043 60.753C22.6509 63.4579 23.289 67.3402 23.6399 69.345C25.0436 77.6188 25.6497 81.7238 25.8092 83.8241C26.0963 87.4837 23.8951 102.695 22.7785 104.954C22.0129 106.513 21.2791 106.672 21.5344 105.272C21.981 102.758 22.9061 88.1519 22.5871 88.4702C22.4914 88.5656 22.1724 91.2069 21.9172 94.3573C21.4067 100.563 20.8325 106.354 20.7049 106.418C20.5135 106.577 15.0902 107.213 14.1012 107.213C12.9847 107.213 12.9847 107.213 15.0583 105.972C16.2067 105.272 17.4828 104.349 17.9294 103.904L18.6951 103.045L16.8448 103.872C15.8239 104.318 14.4202 104.986 13.7503 105.304C13.0804 105.654 12.4742 105.941 12.4104 105.941C12.3147 105.941 12.4742 105.368 12.6975 104.668C12.9528 103.968 13.9417 99.0033 14.8988 93.6254C15.8877 88.2156 17.3233 81.0556 18.1209 77.6506C18.8865 74.2456 19.4607 71.4134 19.3969 71.3498C19.2693 71.2225 18.8865 72.209 17.8018 75.2321C17.419 76.2822 17.3233 76.3777 17.3233 75.7094C17.2914 74.4684 18.7908 65.5581 19.8755 60.753C20.8963 56.1388 21.0558 55.5023 21.2791 55.6933C21.3429 55.7887 21.7577 58.0481 22.2043 60.753ZM85.689 58.4618C86.7098 61.5485 87.9221 66.481 88.5601 69.9814C89.0387 72.6227 90.4423 86.2426 90.8251 91.6206C90.9209 93.1162 91.0804 95.1846 91.1761 96.2348C91.4951 99.6716 91.0166 97.9214 89.8681 91.3023C88.5282 83.6332 86.2951 72.4636 86.2313 73.2273C86.1994 73.7683 91.1761 105.177 91.4951 106.482C91.6865 107.118 91.6227 107.15 90.7613 106.927C90.2509 106.768 88.8791 106.577 87.7626 106.45L85.7209 106.259L87.635 106.832C91.8141 108.104 93.5687 109.282 92.8988 110.396C92.6436 110.778 92.516 110.778 92.1969 110.459C91.8779 110.141 91.8779 110.014 92.2288 109.791C92.7074 109.473 89.3258 108.614 86.5822 108.359C85.6571 108.264 84.7957 108.136 84.6362 108.041C84.4767 107.945 84.1896 106.036 83.9663 103.808C83.1368 94.9937 83.0411 94.3573 83.2006 99.0988C83.2963 101.549 83.5196 104.54 83.6791 105.75C83.8386 106.959 83.8706 108.073 83.7429 108.2C83.5834 108.327 82.9135 108.518 82.1798 108.645L80.8718 108.836L80.4252 103.013C80.1699 99.6716 79.9785 92.9889 79.9785 87.3246C80.0104 78.828 80.1061 76.7278 80.7442 72.209C81.3822 67.5311 83.4877 56.4888 83.8386 55.916C84.2534 55.2796 84.9871 56.2979 85.689 58.4618ZM60.3589 64.7626C60.008 68.4221 59.5933 72.1772 59.4337 73.0682C58.9233 75.7413 56.8816 90.8568 56.4988 94.9619C55.7331 102.886 56.8178 115.074 59.2423 125.607C59.4975 126.72 59.7209 127.834 59.7209 128.089C59.7209 128.439 54.4571 131.398 53.819 131.398C53.5319 131.398 51.6178 127.071 50.6288 124.27C49.7994 121.852 49.7994 121.565 49.9908 117.778C50.1184 115.615 50.3098 106.927 50.4374 98.526L50.6288 83.1877L52.6386 79.2417C56.2117 72.3045 59.3699 64.2852 60.3908 59.4483C60.5822 58.5573 60.8055 57.889 60.8693 57.9526C60.9331 58.0481 60.7098 61.103 60.3589 64.7626ZM43.2914 60.6575C44.4399 66.0355 47.3429 74.2138 49.7037 78.9553C50.565 80.6419 50.7245 81.2465 50.5012 81.8193C50.246 82.4239 49.4485 109.218 49.3528 120.897C49.3209 123.443 49.1614 124.493 48.7466 125.352C47.6939 127.357 45.3012 131.112 45.0779 131.016C44.9822 130.953 42.9405 129.966 40.5798 128.821C38.219 127.675 35.954 126.593 35.5393 126.434C34.8374 126.148 34.9012 126.02 37.7086 121.693C40.9307 116.792 42.5577 113.61 43.1319 111.191C43.3552 110.268 43.5785 106.004 43.6742 101.135C43.8018 94.3891 43.7061 91.0159 43.1638 84.2696C42.8129 79.6554 42.4939 73.8637 42.4301 71.4134C42.3344 66.1946 42.4301 58.2072 42.6215 58.2072C42.6853 58.2072 43.0043 59.321 43.2914 60.6575ZM28.808 97.5395C29.8288 103.681 29.2865 109.155 26.9896 116.315C25.2988 121.597 25.1393 121.661 25.0117 116.824C24.9479 114.405 25.0755 112.241 25.2988 111.446C25.6178 110.268 25.5859 109.982 25.1074 109.25C24.6926 108.614 24.6288 108.232 24.884 107.723C25.5859 106.259 27.819 95.662 27.819 93.7526C27.819 93.5617 27.9147 93.4981 28.0104 93.5935C28.1061 93.689 28.4571 95.471 28.808 97.5395ZM73.4387 98.8442C72.4816 103.713 71.8117 105.781 69.8975 109.887L69.0043 111.828L68.9724 107.659V103.49L70.3442 101.104C71.0779 99.7989 72.2583 97.5713 72.9601 96.1711C73.662 94.771 74.2681 93.689 74.3319 93.7208C74.3957 93.7526 73.981 96.0438 73.4387 98.8442ZM77.5859 97.3486C77.7454 99.3534 78.192 103.522 78.5748 106.609C79.181 111.7 79.2129 112.273 78.7663 113.164C78.3834 113.864 78.3196 114.564 78.4791 115.837C78.6068 116.792 78.6386 118.128 78.5429 118.829C78.3834 119.942 78.2877 119.624 77.6497 116.41C76.5969 111.064 76.246 104.954 76.6288 99.0033C76.7883 96.2666 76.9479 93.8799 76.9479 93.7208C76.9479 93.5617 77.0117 93.4981 77.1074 93.5617C77.1712 93.6572 77.3945 95.3438 77.5859 97.3486ZM41.2497 104.159C40.8669 106.163 39.1123 110.905 38.6337 111.191C38.5061 111.287 38.7933 110.237 39.3037 108.9C39.7822 107.532 40.4521 105.209 40.7712 103.777C41.4411 100.785 41.8239 101.104 41.2497 104.159ZM74.2043 114.787C75.0337 117.874 75.1294 117.715 71.6841 117.715C70.0252 117.715 68.6534 117.587 68.6534 117.428C68.6534 116.856 69.7061 114.246 71.3012 110.809L72.9601 107.277L73.3429 110.077C73.5344 111.605 73.9491 113.705 74.2043 114.787ZM20.4178 107.754C20.0988 107.818 19.5245 107.818 19.1417 107.754C18.727 107.691 18.9822 107.627 19.684 107.627C20.3859 107.595 20.7049 107.659 20.4178 107.754ZM31.8706 110.618C31.6153 113.482 31.0411 116.442 30.5945 116.983C30.3074 117.397 29.0951 117.556 29.0951 117.237C29.0951 117.142 29.2227 116.824 29.4141 116.506C29.9245 115.615 31.3282 110.205 31.3282 109.155C31.3282 108.614 31.4877 108.168 31.6791 108.168C31.9663 108.168 31.9982 108.868 31.8706 110.618ZM20.1307 109.25C21.1196 109.664 22.1405 110.077 22.4276 110.173C22.8104 110.3 22.938 110.778 22.9699 112.082C22.9699 113.037 23.1614 115.487 23.3528 117.524C23.7675 121.565 23.6718 121.947 22.1405 122.265C21.662 122.361 20.992 122.679 20.6411 122.965C20.035 123.443 20.0669 123.475 21.2791 123.284C23.2571 123.029 23.4166 123.316 23.7037 126.848C23.7994 128.566 24.0227 130.475 24.1503 131.112L24.3736 132.289L22.3957 132.608C21.311 132.799 19.9393 133.276 19.3331 133.658C18.2485 134.326 16.5577 136.458 16.0472 137.826C15.8558 138.367 15.6963 137.699 15.3773 135.217C14.7074 129.839 15.5049 127.675 18.8227 125.607C20.3859 124.652 19.7798 124.493 18.1528 125.448C16.6853 126.307 14.4202 128.598 14.4202 129.234C14.4202 129.425 14.3564 129.521 14.2926 129.457C14.1969 129.362 13.7822 126.466 13.3356 122.965C12.889 119.465 12.4423 116.156 12.3466 115.646C12.1871 114.914 12.3466 114.405 12.9528 113.482L13.7503 112.305H12.9847C11.9957 112.305 11.9638 111.732 12.889 110.555C14.6117 108.391 17.0362 107.945 20.1307 109.25ZM89.8043 110.205C90.9847 110.714 93.1859 112.878 92.1012 112.496C91.7503 112.337 90.6018 112.178 89.5491 112.082C87.6988 111.923 87.5712 111.955 85.5613 113.291C84.062 114.31 83.2006 115.169 82.4669 116.442C80.9994 118.892 81.1589 119.147 82.6902 116.824C83.392 115.742 84.0939 114.851 84.2534 114.851C84.4448 114.851 85.2742 114.405 86.1037 113.896C87.0288 113.323 88.0178 112.941 88.6877 112.941C90.3147 112.941 92.2607 113.61 92.2607 114.151C92.2607 115.105 90.5699 123.443 89.1982 129.266C87.9221 134.74 87.0288 138.081 85.689 142.282L85.2104 143.777L84.0939 142.536C83.4877 141.868 82.0202 140.85 80.8399 140.245C79.6595 139.672 78.6068 139.068 78.4791 138.877C78.3515 138.717 78.0963 137.635 77.873 136.49C77.5221 134.485 77.554 134.294 78.7025 130.666C79.3405 128.63 80.0423 125.925 80.2656 124.684L80.6485 122.456L81.1589 123.984C81.4779 124.811 81.7969 126.052 81.9245 126.72C82.0202 127.389 82.2117 127.866 82.2755 127.771C82.3712 127.707 82.116 126.052 81.765 124.143C80.9356 119.783 80.8718 115.805 81.6374 114.501C82.3074 113.419 84.8914 111.509 86.7098 110.841L87.954 110.364L86.1675 110.523C85.1785 110.587 83.7748 110.968 83.0092 111.35C81.5417 112.114 81.5736 112.114 81.2865 111.128C81.0632 110.459 81.3822 110.237 83.8067 109.632C84.8595 109.377 88.7196 109.727 89.8043 110.205ZM29.9245 119.242C28.9675 122.234 28.2337 123.57 27.4043 123.793C26.9258 123.92 26.5429 123.888 26.5429 123.729C26.5429 123.57 26.9896 122.361 27.5638 121.056C28.4252 119.051 28.7123 118.669 29.3503 118.669C29.9245 118.669 30.0521 118.797 29.9245 119.242ZM33.689 120.483C32.7319 122.679 27.4362 132.067 27.2767 131.908C26.862 131.494 33.7209 118.669 34.3589 118.669C34.4227 118.669 34.1356 119.497 33.689 120.483ZM73.5344 118.892C72.6092 118.956 71.046 118.956 70.0252 118.892C69.0043 118.829 69.7699 118.797 71.6841 118.797C73.6301 118.797 74.4595 118.829 73.5344 118.892ZM76.3098 121.947C76.884 123.602 77.0755 124.493 76.8202 124.557C76.6288 124.62 75.289 124.843 73.8215 125.034C71.7798 125.352 71.1098 125.352 70.727 125.034C70.2485 124.62 69.1957 122.074 68.8129 120.324L68.5896 119.274L72.0031 119.37L75.4166 119.465L76.3098 121.947ZM27.0534 127.58C26.2558 129.616 26.0325 129.935 25.9687 129.266C25.7454 127.58 26.2239 125.766 26.9577 125.416C27.3405 125.225 27.7552 125.066 27.8509 125.066C27.9466 125.034 27.5957 126.18 27.0534 127.58ZM35.0926 129.075L36.4963 129.616L36.3049 131.844C36.1773 133.085 36.0178 134.676 35.9221 135.376C35.7945 136.522 35.8264 136.554 36.0816 135.726C36.273 135.217 36.5601 133.721 36.7834 132.385C37.0067 131.048 37.1982 129.935 37.2301 129.871C37.262 129.839 39.0804 130.73 41.2816 131.876C43.4828 133.021 45.5245 133.944 45.7798 133.944C46.0669 133.944 46.7368 133.308 47.311 132.512C47.8853 131.717 48.3638 131.112 48.4276 131.176C48.4595 131.207 48.3638 132.448 48.1724 133.944C47.6939 138.145 47.7577 154.851 48.3 158.384C48.5552 160.007 48.6828 161.375 48.5871 161.439C48.4914 161.502 46.673 161.439 44.5675 161.311C39.2399 160.993 39.2718 161.057 45.2693 162.298C48.7466 163.03 48.8104 163.061 48.9699 163.952C49.0656 164.78 49.0337 164.844 48.2681 164.684C47.8215 164.589 46.0669 164.43 44.408 164.334L41.3773 164.143L43.9294 165.034L46.4816 165.925L46.3859 168.789C46.354 170.349 46.035 175.154 45.684 179.45C45.3331 183.746 44.8227 190.747 44.5675 195.043C44.2804 199.339 43.9294 204.685 43.7699 206.976C43.5785 209.236 43.2914 213.468 43.1 216.364C42.7172 221.742 42.2067 223.874 42.1429 220.151C42.1429 219.037 41.9196 216.236 41.6963 213.977L41.2497 209.84L41.4092 217.478C41.473 221.678 41.7282 226.388 41.9515 227.979C42.4301 231.511 42.4301 231.002 41.8877 255.505C41.6006 269.061 41.3454 275.776 41.1221 275.935C40.7074 276.19 36.7515 276.953 36.6239 276.794C36.4963 276.667 36.2092 266.484 35.4755 236.253C35.284 229.411 34.9969 219.673 34.8374 214.613C34.646 209.522 34.3589 195.647 34.1994 183.778C34.0399 171.908 33.8166 162.075 33.689 161.98C33.4337 161.725 33.8166 198.734 34.1994 212.386C34.3589 217.987 34.7098 231.384 34.9969 242.14C35.2521 252.896 35.5393 265.052 35.6669 269.157L35.8902 276.603L33.5933 276.444C32.3491 276.349 31.2325 276.221 31.1687 276.158C31.1049 276.062 30.8816 272.307 30.6902 267.757C29.9564 249.682 29.7012 244.208 28.9356 228.583C28.489 219.673 28.0104 210.636 27.819 208.535C27.6595 206.467 27.3724 202.744 27.181 200.293C26.7025 193.452 25.9368 185.433 25.0755 177.413C24.6288 173.436 24.3098 170.094 24.3736 170.031C24.4374 169.967 25.0436 172.958 25.7454 176.681C26.4153 180.405 27.3086 185.146 27.7233 187.246C28.3933 190.874 28.4252 190.938 28.2656 188.678C28.1699 187.374 27.5638 182.696 26.862 178.336C26.192 173.945 25.3307 168.217 24.9798 165.607C23.0656 151.542 22.9699 150.301 23.0975 146.991C23.289 143.109 23.5761 142.441 26.4472 138.527C27.4681 137.158 28.6485 135.472 29.0632 134.803C29.4779 134.135 29.8607 133.658 29.9245 133.721C29.9883 133.785 29.765 135.535 29.446 137.635C28.2975 144.7 28.3933 146.228 29.6055 139.99C30.5307 135.122 30.9454 133.626 32.0301 131.303C32.7638 129.775 33.4337 128.534 33.5294 128.534C33.6252 128.534 34.327 128.789 35.0926 129.075ZM52.8939 133.849C53.1491 133.944 54.808 133.371 56.5307 132.544C58.2853 131.748 59.9123 131.08 60.1356 131.08C60.7098 131.08 61.8902 135.344 62.273 138.877C62.4325 140.436 62.7196 143.745 62.911 146.196C63.3577 152.019 64.0914 158.097 64.6975 160.675C65.7184 165.034 68.9405 181.391 69.5785 185.337C73.7577 211.622 74.4595 217.318 75.0337 230.047C75.7037 245.799 75.9589 253.087 76.1503 261.71C76.246 266.611 76.4055 272.721 76.5012 275.298L76.6926 280.008H75.608C74.2043 280.008 70.089 278.926 69.1638 278.322C68.462 277.844 68.4301 277.558 68.0791 271.034C67.0264 252.132 66.9307 246.372 67.6006 241.344C67.8239 239.753 67.8239 239.753 68.0472 240.867C68.2386 241.853 68.2706 241.758 68.3025 240.23C68.3344 239.276 68.5577 236.603 68.8129 234.343C69.4828 228.488 69.419 224.097 68.6534 220.978C68.3344 219.578 66.484 213.786 64.5699 208.09C62.6558 202.394 60.965 197.239 60.8374 196.634C60.7098 196.029 60.0718 193.579 59.4018 191.224C58.7319 188.869 57.5834 184.764 56.8497 182.155C56.116 179.514 55.446 177.095 55.3503 176.745C55.2546 176.395 56.2755 177.572 57.6153 179.354C58.9233 181.168 60.1037 182.632 60.1994 182.632C60.327 182.632 60.327 182.537 60.2632 182.378C60.1675 182.25 59.2742 180.786 58.2853 179.132C55.4779 174.486 52.4153 168.185 52.7982 167.803C52.8939 167.708 53.6914 167.835 54.5847 168.121C55.4779 168.376 56.2117 168.535 56.2117 168.471C56.2117 168.376 55.2227 167.835 54.0104 167.23L51.8411 166.116L50.8202 163.634C49.1933 159.529 48.8423 157.333 48.6509 150.078C48.4595 143.045 49.0018 131.748 49.5761 130.125L49.927 129.107L51.1712 131.398C51.873 132.639 52.6386 133.753 52.8939 133.849ZM24.7883 134.421C24.7883 134.581 24.1822 134.835 23.4166 134.931C20.7687 135.281 17.5466 138.527 17.1 141.295C16.9724 141.963 16.7491 142.441 16.5896 142.345C15.7282 141.804 17.9933 136.649 19.6521 135.376C21.2472 134.167 24.7883 133.499 24.7883 134.421ZM23.0337 139.131C21.8534 141.55 21.3429 143.109 21.0239 145.05L20.6411 147.691L19.2374 144.732C18.0252 142.027 17.8975 141.645 18.2166 140.627C18.8227 138.654 22.0767 135.917 23.8951 135.853C24.565 135.853 24.5012 136.044 23.0337 139.131ZM66.7074 147.15C67.792 149.346 69.3871 151.987 70.408 153.292C72.1626 155.456 74.6509 157.493 75.5761 157.493C76.0865 157.493 76.1184 157.938 75.6399 158.797C75.3847 159.306 75.0975 159.402 74.3 159.243L73.2791 159.02L74.1724 159.879C74.8104 160.484 75.0337 161.025 75.0337 161.884C75.0337 162.52 75.1613 163.571 75.3209 164.175C75.4804 164.78 75.7037 165.989 75.7994 166.88C75.927 168.185 75.8951 168.376 75.5761 167.898C70.1528 159.593 69.8656 159.052 69.1957 155.901L68.7172 153.833L68.9086 155.901C68.9724 157.047 69.3233 159.243 69.6423 160.834L70.2166 163.698L70.089 161.629L69.9294 159.561L70.8227 162.266C71.3331 163.762 72.2902 166.244 72.9601 167.835C75.7356 174.486 76.0227 175.568 76.6288 182.95C77.0436 188.201 77.2031 189.156 77.235 187.119C77.235 185.655 77.3307 184.51 77.4264 184.605C78.3196 185.464 78.7982 204.08 79.0534 248.186L79.2767 279.244L78.3834 279.626C77.9049 279.849 77.4583 279.976 77.3945 279.945C77.3626 279.881 77.1393 273.835 76.9479 266.484C76.5331 249.809 75.4804 224.287 75.0337 219.864C74.4914 214.454 72.8325 201.853 72.1626 198.066C71.8117 196.125 71.1736 192.211 70.727 189.315C70.3123 186.419 69.1319 180.118 68.1748 175.313C67.2178 170.508 66.3245 165.766 66.1969 164.812L66.0055 163.061L68.5258 166.785C69.8975 168.821 71.0779 170.444 71.1417 170.412C71.2055 170.349 70.3123 168.789 69.1957 166.976C65.2399 160.611 64.6018 158.67 63.9 150.619C63.3577 144.732 62.911 140.022 62.7196 138.558C62.6239 137.604 62.8791 138.049 63.7086 140.309C64.3466 141.963 65.6865 145.05 66.7074 147.15ZM82.3393 142.982C83.2006 143.745 84.2853 145.877 84.2534 146.832C84.2534 147.278 84.062 147.087 83.5834 146.196C82.8178 144.668 81.3184 143.045 79.9147 142.186C79.3405 141.804 78.862 141.327 78.862 141.072C78.862 140.595 80.9037 141.677 82.3393 142.982ZM80.808 144.032C81.9883 145.368 82.116 145.941 81.4141 147.309C81.0632 148.01 80.6485 148.582 80.5209 148.582C80.3932 148.582 80.1061 147.628 79.9147 146.418C79.7233 145.241 79.4362 143.936 79.3086 143.523C79.1172 142.854 79.1491 142.823 79.6914 143.109C80.0423 143.3 80.5209 143.682 80.808 144.032ZM17.4509 144.127C17.738 144.636 17.8018 145.082 17.6423 145.082C17.2914 145.082 16.6534 144.064 16.6534 143.523C16.6534 142.918 16.9405 143.141 17.4509 144.127ZM52.3196 178.973C55.3184 189.76 55.5736 190.81 58.3172 204.717C59.6252 211.368 61.0607 218.687 61.5074 220.978C61.954 223.237 62.592 225.719 62.911 226.483C63.3577 227.47 63.4534 228.042 63.2301 228.615C63.0387 229.061 63.1025 231.798 63.3896 235.839C63.6448 239.403 64.0595 245.736 64.3466 249.936C64.6337 254.137 64.9847 258.783 65.1442 260.278C65.3037 261.774 65.6546 266.42 65.9417 270.621C66.2926 276.126 66.5798 278.513 66.9307 279.149C67.3135 279.817 67.3773 280.517 67.2178 282.013C66.8988 285.1 66.165 288.377 65.4632 290.032C65.0485 291.019 64.7294 292.673 64.5699 294.774L64.3466 297.988L55.8607 298.083L47.3748 298.147L46.992 294.105C46.5773 290.096 45.6521 286.214 45.046 285.991C44.8865 285.927 44.5356 284.591 44.2804 283.031C43.8975 280.549 43.8975 278.353 44.2804 266.484C45.1417 239.721 45.716 225.974 46.1626 219.546C46.4178 215.95 46.8325 209.14 47.1196 204.43C47.662 194.916 48.6509 182.155 49.3528 175.79C49.608 173.499 49.8313 171.463 49.8313 171.208C49.8313 170.221 50.2141 171.367 52.3196 178.973ZM63.0706 206.34C67.4411 218.464 68.6853 222.378 68.8767 224.606C69.0043 226.292 68.8129 227.915 67.8558 232.593C67.1859 235.839 66.5479 238.671 66.4202 238.926C66.2926 239.148 66.1012 237.366 65.9736 234.948C65.846 232.529 65.5908 230.302 65.4313 229.984C65.208 229.57 65.2399 229.061 65.4951 228.297C65.9098 227.151 65.5589 225.21 61.284 205.385C59.4018 196.634 59.2104 195.647 59.9123 197.589C60.1994 198.384 61.6031 202.298 63.0706 206.34ZM64.3466 298.783C64.4742 299.006 61.6669 299.102 56.2436 299.133C46.992 299.197 47.4386 299.165 47.0877 299.515C46.9601 299.643 49.1933 299.706 52.0963 299.674C60.5822 299.547 65.2718 299.706 65.8779 300.12C66.3245 300.47 64.3147 300.534 55.4779 300.534C44.9184 300.534 44.5675 300.502 45.7479 299.993C46.4178 299.706 46.9601 299.324 46.9601 299.133C46.9601 298.624 48.0448 298.561 56.2755 298.497C61.2202 298.497 64.219 298.592 64.3466 298.783ZM69.2276 301.202C73.8534 301.743 69.9613 301.966 55.2227 301.966C39.9736 301.966 39.2399 301.934 39.7184 301.393C40.165 300.884 41.2178 300.852 53.8828 300.915C61.3798 300.979 68.3025 301.106 69.2276 301.202ZM70.408 302.92C71.3012 303.047 64.6018 303.175 55.3184 303.207C44.2485 303.238 38.6975 303.143 38.8252 302.92C39.0485 302.538 67.9515 302.538 70.408 302.92Z" fill="#593E25"/>
<path d="M3.97547 344V332.34H0.755469V330H10.0355V332.34H6.85547V344H3.97547ZM14.6736 337.36V344H12.0536V334H14.1336L14.3736 334.98C14.9069 334.553 15.3536 334.253 15.7136 334.08C16.0736 333.893 16.3869 333.8 16.6536 333.8C16.9336 333.8 17.1203 333.807 17.2136 333.82C17.3069 333.82 17.3869 333.827 17.4536 333.84C17.5203 333.853 17.6336 333.88 17.7936 333.92L17.5536 336.3C17.3136 336.22 16.9869 336.18 16.5736 336.18C16.0136 336.18 15.3803 336.573 14.6736 337.36ZM25.1661 344L24.7661 343C24.2994 343.427 23.8861 343.727 23.5261 343.9C23.1661 344.06 22.7328 344.14 22.2261 344.14C21.3728 344.14 20.6261 343.847 19.9861 343.26C19.3594 342.66 19.0461 341.867 19.0461 340.88C19.0461 339.893 19.4328 339.12 20.2061 338.56C20.9794 337.987 22.1461 337.7 23.7061 337.7H24.5261C24.5261 337.127 24.3861 336.667 24.1061 336.32C23.8394 335.973 23.4261 335.8 22.8661 335.8C21.8928 335.8 20.9061 335.933 19.9061 336.2L19.4661 334.44C20.7861 334.013 22.1128 333.8 23.4461 333.8C25.8728 333.8 27.0861 334.933 27.0861 337.2V344H25.1661ZM24.4861 339.62H23.6261C22.8794 339.62 22.3728 339.72 22.1061 339.92C21.8394 340.12 21.7061 340.413 21.7061 340.8C21.7061 341.173 21.8061 341.48 22.0061 341.72C22.2061 341.96 22.4661 342.08 22.7861 342.08C23.2394 342.08 23.8061 341.72 24.4861 341V339.62ZM28.9047 347.52C29.4514 346.813 29.7247 345.68 29.7247 344.12V334H32.2847V343.64C32.2847 345.72 31.6714 347.413 30.4447 348.72L28.9047 347.52ZM32.3047 332.5H29.7047V330H32.3047V332.5ZM42.732 343.38C41.4654 343.873 40.292 344.12 39.212 344.12C36.0787 344.12 34.512 342.427 34.512 339.04C34.512 337.32 34.892 336.02 35.652 335.14C36.412 334.247 37.5187 333.8 38.972 333.8C40.172 333.8 41.132 334.173 41.852 334.92C42.572 335.667 42.932 336.773 42.932 338.24C42.932 338.827 42.9054 339.34 42.852 339.78H37.072C37.072 340.567 37.2854 341.147 37.712 341.52C38.1387 341.893 38.712 342.08 39.432 342.08C40.152 342.08 41.1054 341.92 42.292 341.6L42.732 343.38ZM40.432 337.94V337.8C40.432 337.187 40.2987 336.693 40.032 336.32C39.7654 335.947 39.3454 335.76 38.772 335.76C38.1987 335.76 37.772 335.967 37.492 336.38C37.212 336.793 37.0654 337.313 37.052 337.94H40.432ZM55.3344 329.98L54.9944 331.84C54.661 331.773 54.3477 331.74 54.0544 331.74C53.7744 331.74 53.5544 331.827 53.3944 332C53.2344 332.173 53.1544 332.493 53.1544 332.96V334H54.7944V336.14H53.1544V344H50.5744V336.14H49.4344V334H50.5944V332.48C50.5944 331.627 50.8344 330.967 51.3144 330.5C51.8077 330.033 52.481 329.8 53.3344 329.8C54.1877 329.8 54.8544 329.86 55.3344 329.98ZM65.1183 339.02C65.1183 340.62 64.7116 341.873 63.8983 342.78C63.0849 343.687 61.9316 344.14 60.4383 344.14C58.9449 344.14 57.8116 343.687 57.0383 342.78C56.2649 341.873 55.8783 340.613 55.8783 339C55.8783 337.387 56.2649 336.12 57.0383 335.2C57.8116 334.267 58.9249 333.8 60.3783 333.8C61.8316 333.8 62.9849 334.273 63.8383 335.22C64.6916 336.153 65.1183 337.42 65.1183 339.02ZM62.4583 338.98C62.4583 336.94 61.8049 335.92 60.4983 335.92C59.1649 335.92 58.4983 336.933 58.4983 338.96C58.4983 340.987 59.1716 342 60.5183 342C61.2383 342 61.7383 341.747 62.0183 341.24C62.3116 340.72 62.4583 339.967 62.4583 338.98ZM70.0252 337.36V344H67.4052V334H69.4852L69.7252 334.98C70.2585 334.553 70.7052 334.253 71.0652 334.08C71.4252 333.893 71.7385 333.8 72.0052 333.8C72.2852 333.8 72.4718 333.807 72.5652 333.82C72.6585 333.82 72.7385 333.827 72.8052 333.84C72.8718 333.853 72.9852 333.88 73.1452 333.92L72.9052 336.3C72.6652 336.22 72.3385 336.18 71.9252 336.18C71.3652 336.18 70.7318 336.573 70.0252 337.36ZM77.8377 344H75.2177V334H77.4177L77.7577 334.9C78.331 334.473 78.8243 334.187 79.2377 334.04C79.6643 333.88 80.1577 333.8 80.7177 333.8C81.731 333.8 82.471 334.26 82.9377 335.18C83.6843 334.633 84.2843 334.267 84.7377 334.08C85.2043 333.893 85.711 333.8 86.2577 333.8C87.0843 333.8 87.7377 334.107 88.2177 334.72C88.6977 335.32 88.9377 336.207 88.9377 337.38V344H86.3177V338.08C86.3177 336.853 85.951 336.24 85.2177 336.24C84.671 336.24 84.0443 336.547 83.3377 337.16V344H80.7377V338.08C80.7377 336.853 80.3777 336.24 79.6577 336.24C79.1243 336.24 78.5177 336.527 77.8377 337.1V344ZM97.4708 344L97.0708 343C96.6041 343.427 96.1908 343.727 95.8308 343.9C95.4708 344.06 95.0374 344.14 94.5308 344.14C93.6774 344.14 92.9308 343.847 92.2908 343.26C91.6641 342.66 91.3508 341.867 91.3508 340.88C91.3508 339.893 91.7374 339.12 92.5108 338.56C93.2841 337.987 94.4508 337.7 96.0108 337.7H96.8308C96.8308 337.127 96.6908 336.667 96.4108 336.32C96.1441 335.973 95.7308 335.8 95.1708 335.8C94.1974 335.8 93.2108 335.933 92.2108 336.2L91.7708 334.44C93.0908 334.013 94.4174 333.8 95.7508 333.8C98.1774 333.8 99.3908 334.933 99.3908 337.2V344H97.4708ZM96.7908 339.62H95.9308C95.1841 339.62 94.6774 339.72 94.4108 339.92C94.1441 340.12 94.0108 340.413 94.0108 340.8C94.0108 341.173 94.1108 341.48 94.3108 341.72C94.5108 341.96 94.7708 342.08 95.0908 342.08C95.5441 342.08 96.1108 341.72 96.7908 341V339.62ZM104.829 344H102.229V330H104.829V344Z" fill="#593E25"/>
</svg>
