<svg width="154" height="308" viewBox="0 0 154 308" fill="none" xmlns="http://www.w3.org/2000/svg">
<path d="M70.4822 0.479553C67.0954 1.37302 63.1656 4.97891 60.6415 9.54208C59.4274 11.6801 56.7436 18.0622 55.5934 21.4447C55.1461 22.7849 54.3473 24.6038 53.8042 25.4335C53.1012 26.5184 52.8776 27.1885 53.0054 27.8268C53.1012 28.3373 52.9734 29.1351 52.7178 29.6456C52.0788 30.9221 52.1108 32.1666 52.8776 33.3153C53.8681 34.7832 53.7083 35.8044 52.3344 37.0489C48.6282 40.3675 48.0851 41.0057 48.0851 42.2183C48.0851 42.9842 48.5643 44.3244 49.4909 46.0795L50.8967 48.76L49.7465 48.9833C45.7207 49.6534 43.1328 51.4724 42.0145 54.4719C41.2158 56.5461 41.2477 57.1843 42.334 69.3741C43.9315 86.9567 43.9954 97.168 42.5577 104.476C41.2158 111.272 41.056 112.836 39.778 135.109C39.5863 138.428 39.3307 141.46 39.2349 141.779C39.139 142.13 39.0432 144.14 38.9793 146.246C38.9473 148.959 38.6598 151.48 38.0207 154.639L37.1261 159.17L38.1166 160.702C38.6598 161.531 39.5224 163.159 40.0336 164.307C40.7685 165.999 41.5033 166.892 43.4842 168.711C46.0722 171.072 47.3183 171.743 47.7656 171.009C48.117 170.434 47.5419 168.998 46.6154 168.105C45.4971 167.052 45.6568 166.86 47.4141 167.084C48.4046 167.179 49.0436 167.116 49.1714 166.892C49.3311 166.669 49.0755 166.541 48.4685 166.541C47.0307 166.541 47.0307 166.19 48.5324 165.265C50.1938 164.212 50.4174 163.861 50.1618 162.999C49.9701 162.425 49.7465 162.361 48.8838 162.489C47.8614 162.648 47.8295 162.648 47.6378 161.212C47.5419 160.414 47.4461 157.925 47.4461 155.692C47.4461 152.213 47.3502 151.32 46.6473 149.278C45.1456 144.906 45.1137 144.555 46.0403 140.439C46.9668 136.226 47.4461 135.301 47.4461 137.694C47.4461 141.938 49.0436 151.448 52.2705 166.541C53.2929 171.36 54.3473 177.072 54.6029 179.21C56.1685 191.846 55.1141 213.737 52.0469 232.117C50.6411 240.541 46.9349 255.284 44.4747 262.272C41.1199 271.718 35.2091 280.812 29.4261 285.376C23.8668 289.779 18.8187 291.087 4.47303 291.853L0 292.077L3.67427 292.364C8.17925 292.683 17.988 292.172 21.0871 291.439C25.3365 290.449 30.8639 287.386 34.4743 284.003C36.583 282.025 36.4232 282.472 33.6755 286.237C30.0651 291.119 25.7519 294.023 19.2021 295.906C15.9112 296.863 12.8759 297.278 7.02905 297.565C4.56888 297.661 2.52407 297.789 2.46017 297.852C2.14066 298.14 23.2917 298.331 34.8896 298.172C47.5419 297.98 53.1332 297.725 55.4336 297.214C56.1365 297.055 56.1365 297.087 55.5934 297.342C55.0502 297.597 55.0183 297.661 55.5295 297.661C55.817 297.693 56.0726 297.789 56.0726 297.916C56.0407 298.682 55.3697 298.937 53.1971 299.065L50.8008 299.161L53.2929 299.225C54.7307 299.257 55.7531 299.416 55.7531 299.608C55.7531 300.118 55.1141 300.278 52.0149 300.533L49.2033 300.788L52.3025 300.852C54.9224 300.884 55.3697 300.948 55.2419 301.363C55.0822 301.714 54.4112 301.841 52.2705 301.905L49.5228 301.969L52.1747 302.065C54.2195 302.16 54.7946 302.288 54.7946 302.639C54.7946 302.958 54.4112 303.118 53.6124 303.15C52.9415 303.182 48.8838 303.309 44.5705 303.437L36.7427 303.628L45.6888 303.692C51.5037 303.724 54.5071 303.852 54.2834 304.075C54.1237 304.235 51.1842 304.426 47.6058 304.49L41.2158 304.554L47.7017 304.649C51.5676 304.681 54.1556 304.841 54.1556 305.032C54.1556 305.192 54.4751 305.607 54.8585 305.99C55.4336 306.5 55.9768 306.628 57.9577 306.628C59.2996 306.628 61.6 306.404 63.0697 306.149C64.5714 305.894 66.744 305.575 67.8942 305.479L70.0349 305.256L71.3768 306.628L72.7187 308L74.8593 307.777C76.0415 307.681 77.9266 307.362 79.0768 307.075C80.4187 306.724 82.7191 306.532 85.5946 306.5C90.0037 306.436 90.0357 306.436 90.7066 305.575L91.3776 304.713L99.5249 304.617L107.672 304.554L99.461 304.458C94.2212 304.426 91.2178 304.266 91.2178 304.075C91.2178 303.884 94.956 303.724 101.698 303.692C109.781 303.66 111.091 303.596 107.512 303.469C104.956 303.341 100.26 303.245 97.0647 303.277C93.8378 303.277 91.2178 303.213 91.2178 303.118C91.2178 302.926 92.7195 302.128 94.8282 301.235C97.8954 299.927 99.461 299.799 113.263 299.767C125.564 299.735 126.619 299.703 127.961 299.129C129.271 298.586 130.389 298.491 139.303 298.427C145.118 298.363 149.335 298.172 149.495 298.012C149.719 297.789 149.144 297.693 147.929 297.693C143.616 297.661 131.124 297.055 128.632 296.736C127.162 296.544 125.437 296.161 124.829 295.906C124.222 295.651 123.647 295.523 123.583 295.587C123.328 295.842 125.532 296.831 127.162 297.214L128.759 297.597L126.81 297.821C124.67 298.044 118.184 297.565 116.554 297.023C115.724 296.768 115.053 296.002 113.423 293.577C109.142 287.163 106.266 278.962 102.88 263.708C100.483 252.827 97.512 235.5 96.1382 224.044C95.8187 221.555 95.5311 219.576 95.4353 219.672C94.8602 220.215 98.151 243.35 100.963 258.603C103.87 274.271 108.343 287.673 112.816 294.119C113.583 295.236 114.222 296.193 114.222 296.289C114.222 296.576 111.442 294.693 110.292 293.577C105.116 288.662 100.739 270.92 95.2116 232.436C94.6365 228.32 92.8793 213.067 92.3042 206.908C91.793 201.451 91.4095 179.688 91.8568 181.699C92.0166 182.401 92.5278 186.709 92.9751 191.272C94.0295 201.675 95.7228 213.609 97.1286 220.47C100.036 234.574 100.356 235.946 102.432 243.924C105.212 254.518 111.73 273.281 114.669 279.217C118.024 285.95 122.018 290.864 125.468 292.523C128.088 293.8 133.2 294.247 137.705 293.577C142.754 292.811 144.447 292.619 149.048 292.396L154 292.141L150.485 291.885C141.188 291.247 138.153 290.96 136.427 290.513C130.9 289.077 124.254 283.142 118.695 274.717C110.644 262.496 103.519 239.903 97.9593 209.142C94.956 192.421 93.7739 182.305 93.7739 173.019C93.7739 164.914 93.9656 163.414 96.1701 153.937C98.3747 144.491 98.9178 140.662 99.1096 132.971L99.3013 126.653L102.752 134.471C107.193 144.459 107.321 144.906 107.097 147.969C106.937 150.107 107.033 150.746 107.864 153.298C108.727 155.915 109.589 162.042 109.206 162.776C109.142 162.935 108.599 163.031 107.992 163.031C107.321 163.031 106.586 163.318 106.011 163.797C105.244 164.435 105.212 164.627 105.563 165.073C106.139 165.775 106.65 165.712 106.394 164.978C106.171 164.212 107.033 163.669 108.439 163.669C109.845 163.669 109.653 164.18 108.151 164.435C107.449 164.531 106.873 164.786 106.873 164.978C106.873 165.233 107.257 165.297 107.992 165.169C108.599 165.073 109.174 165.105 109.27 165.265C109.557 165.743 108.631 166.19 107.033 166.286C105.659 166.382 105.436 166.477 105.34 167.084C105.244 167.626 105.404 167.818 105.819 167.818C106.171 167.818 106.554 167.69 106.746 167.53C106.905 167.371 107.768 167.148 108.631 167.052L110.228 166.828L109.046 167.658C107.417 168.743 106.969 170.69 108.311 170.69C108.95 170.69 115.82 166.35 116.65 165.424C117.289 164.754 117.353 164.307 117.353 160.446C117.385 157.032 117.289 155.979 116.81 154.926C115.66 152.341 113.902 145.927 113.902 144.3C113.902 143.789 113.391 141.779 112.784 139.864C111.698 136.514 108.247 124.292 105.787 115.07C105.148 112.645 104.254 109.709 103.806 108.528C101.761 103.231 101.793 103.327 101.793 99.6889C101.761 90.4988 102.656 79.4897 104.317 68.4168C104.701 65.9597 105.084 62.29 105.18 60.2796C105.308 56.8971 105.276 56.5142 104.573 55.174C104.158 54.3124 103.071 53.1636 102.017 52.302C100.324 50.9937 100.164 50.7703 100.164 49.5896C100.164 48.4409 100.196 48.377 100.675 48.8238C100.931 49.111 101.378 49.9088 101.602 50.5789C101.921 51.5043 102.049 51.6319 102.081 51.0894C102.113 49.2705 100.164 47.1964 97.0967 45.7604C94.4448 44.5478 93.7739 43.8458 93.7739 42.346C93.7739 41.4206 93.9656 40.9738 94.6365 40.3994C97.4481 38.07 97.9593 37.4637 98.3747 36.0596L98.854 34.5917V36.4106C98.8859 37.8785 98.6622 38.6125 97.7676 40.3994C97.1606 41.5801 96.9369 42.2183 97.2564 41.7716C98.822 39.7932 99.3013 38.2934 99.1415 35.9001C98.9498 33.2196 97.9593 30.6029 95.7228 26.9333C93.4863 23.2955 92.1444 20.4554 90.0676 15.2221C87.6714 9.15918 86.4253 6.79779 84.2527 4.40451C81.0896 0.92627 78.2141 -0.254395 76.2652 1.11774C75.8498 1.40494 75.5622 1.46875 75.5622 1.24539C75.5622 0.830566 73.6133 -0.0310364 72.7826 0.00088501C72.4631 0.00088501 71.4407 0.224243 70.4822 0.479553ZM74.3481 1.85168C74.6357 2.13889 74.9552 2.71326 75.0191 3.16C75.083 3.60675 75.083 3.79822 75.0191 3.60675C74.9552 3.41528 74.3481 3.09619 73.6772 2.87283C71.9519 2.36224 71.7282 2.42609 72.9743 3.09619C74.1564 3.67059 74.8913 4.56406 74.5079 4.94699C74.3801 5.07465 74.0925 5.0108 73.9008 4.81937C73.6772 4.59598 73.3896 4.43643 73.1979 4.43643C73.0382 4.43643 73.166 4.6279 73.5174 4.88318C73.8369 5.13846 74.0286 5.45755 73.8689 5.58521C73.7411 5.71283 73.8369 6.03195 74.0925 6.31915C74.5398 6.8616 75.2427 8.71243 75.2427 9.41446C75.2427 9.66974 75.083 9.86121 74.8913 9.86121C74.6996 9.86121 74.6357 9.57401 74.7635 9.22299C75.051 8.3295 73.6452 6.98926 72.3672 6.98926C71.8241 6.98926 70.9614 7.21265 70.4502 7.46793C69.3 8.0423 68.1178 9.92502 68.4373 10.6909C68.5651 11.0738 68.5332 11.1695 68.2776 11.01C68.0539 10.8823 67.8942 10.8504 67.8942 10.9461C67.8942 11.0419 67.6705 12.6693 67.383 14.552C66.3925 21.2213 65.1145 22.7211 58.2452 25.1463C56.6797 25.6888 55.4336 26.0078 55.4336 25.8802C55.4336 25.7526 56.3921 25.242 57.5423 24.7314C61.4403 22.9764 65.1784 18.7642 66.1369 14.9669C66.2328 14.5201 65.7535 15.3498 65.0187 16.7857C64.2199 18.4132 63.1017 20.0406 62.1432 20.9979C60.6095 22.5615 56.2004 25.4016 55.849 25.0825C55.7851 24.9867 55.9129 24.5719 56.1685 24.157C56.8075 23.1997 58.6925 18.4451 58.5328 18.2536C58.4689 18.1898 57.9257 19.3067 57.3187 20.7426C55.8809 24.2528 55.7851 23.4869 57.1909 19.4343C61.2486 7.85083 65.5618 2.17078 71.0253 1.24539C72.7826 0.958191 73.6133 1.11774 74.3481 1.85168ZM80.6104 2.17078C83.8054 3.79822 86.6809 8.10611 89.173 14.9669C89.844 16.8177 91.3456 20.264 92.5278 22.6254C93.71 24.9867 94.6685 26.9652 94.6046 26.9971C94.349 27.2523 88.5979 23.3274 87.0643 21.8914L85.3071 20.2321L86.9046 21.9552C87.7992 22.8806 89.812 24.5081 91.3776 25.5611C93.7739 27.1566 94.0614 27.4438 93.1349 27.2523C90.8025 26.7418 87.7033 25.4016 86.4253 24.3166C84.6681 22.7849 83.6776 20.7107 82.751 16.4986C82.3037 14.552 81.6328 12.3821 81.2494 11.6801C80.3548 10.0846 78.3739 8.84006 77.032 8.9996C76.1693 9.12726 76.1374 9.09534 76.7125 8.68051C77.0639 8.42523 77.8307 8.26569 78.5336 8.3295C79.6199 8.42523 79.6838 8.39331 79.1726 8.01041C78.1822 7.30835 77.1917 7.21265 76.361 7.7551C75.4025 8.39331 75.2747 7.85083 76.1374 6.89352C76.4249 6.54251 76.4888 6.35104 76.2971 6.4787C75.7859 6.7659 75.7859 6.41489 76.2652 5.04272C76.7125 3.67059 77 3.47913 78.7573 3.47913C80.0033 3.4472 80.0992 3.38339 79.4282 3.12811C79.0129 2.96854 78.4058 2.90472 78.0863 3.00046C77.7349 3.09619 77.1917 3.25574 76.8403 3.35147C76.0095 3.57486 76.0415 3.03238 76.9042 2.2027C77.7668 1.40494 79.0768 1.37302 80.6104 2.17078ZM73.0062 8.26569L74.1245 8.87198L72.8145 9.06345C71.217 9.35062 69.939 10.1165 69.1403 11.3291C68.8207 11.8396 68.5332 12.0949 68.5332 11.9354C68.5332 11.4886 69.5876 9.92502 70.3224 9.35062C70.6419 9.09534 70.7058 8.96771 70.4502 9.09534C70.1946 9.22299 69.6515 9.60593 69.2681 9.95694C68.4054 10.7228 68.3095 10.3398 69.0764 9.22299C70.2585 7.49982 71.1851 7.27646 73.0062 8.26569ZM78.949 9.82928C80.1311 10.5632 81.2494 12.2545 81.505 13.7224C81.6647 14.7116 81.6008 14.6478 80.8979 13.2118C80.0353 11.4886 79.1726 10.5632 77.639 9.76547C76.8722 9.35062 76.8083 9.25488 77.3195 9.22299C77.671 9.22299 78.4058 9.51019 78.949 9.82928ZM77.3515 10.8185C79.1087 11.5844 80.0353 13.1799 81.3133 17.6792C81.8884 19.5939 82.751 21.9552 83.2622 22.8806L84.2207 24.5719L83.3581 27.8268C82.8788 29.6137 82.2398 31.6241 81.8884 32.2942C80.3548 35.3576 76.0734 38.2295 73.7091 37.7828C71.9519 37.4637 69.6834 36.1873 68.1498 34.6556C66.6162 33.1558 65.5938 30.8263 64.5394 26.5503L63.9963 24.2209L65.466 22.753C67.1274 21.0617 68.022 18.9557 68.3735 16.0837C69.0125 10.6909 72.4631 8.68051 77.3515 10.8185ZM59.9066 25.4973C59.651 25.6568 59.2996 25.8164 59.1079 25.8164C58.9481 25.8164 59.012 25.6568 59.2676 25.4973C59.5232 25.3377 59.9066 25.1782 60.0664 25.1782C60.2581 25.1782 60.1622 25.3377 59.9066 25.4973ZM53.9959 27.2843C53.261 28.433 53.0373 28.0182 53.7083 26.7099C54.0278 26.1355 54.3154 25.8483 54.4112 26.0717C54.4751 26.295 54.2834 26.8375 53.9959 27.2843ZM60.993 31.3688C62.8141 34.7832 62.4946 36.8574 59.651 40.0803C58.8203 41.0377 57.8299 42.2822 57.4465 42.8246C56.5838 44.0053 56.4241 43.2714 57.1909 41.7716C57.4784 41.2291 57.6062 40.8143 57.5104 40.8143C57.1589 40.8143 56.0726 43.4948 56.0726 44.3244C56.0726 44.7712 56.4241 45.7285 56.8714 46.4624C57.7979 48.1218 57.2228 48.3451 55.9448 46.8453C55.1141 45.888 54.9544 45.2498 55.0822 43.6862C55.1141 43.048 55.0502 42.9842 54.7946 43.3671C54.2195 44.2287 54.4432 46.0795 55.2739 47.324L56.0407 48.4728H55.0502C54.2515 48.4728 53.6764 48.0898 52.1747 46.622C50.5772 44.9945 50.3216 44.5797 50.3216 43.5586C50.3216 41.963 50.673 41.3568 53.0693 38.8358C54.4432 37.4318 55.1141 36.4745 55.0822 35.9639C55.0822 35.2299 55.0822 35.2299 54.7946 35.9001C54.6349 36.283 54.3793 36.6978 54.1876 36.7936C53.9959 36.9212 54.0598 36.6021 54.3154 36.1234C54.9544 34.9109 54.9224 34.5279 53.9959 32.9643C53.1651 31.5284 53.1651 30.3477 53.9959 29.6456C54.3154 29.3904 54.539 29.5499 55.0183 30.3477C55.7851 31.656 58.6606 34.8151 58.8842 34.6237C58.9481 34.5279 58.2452 33.4111 57.2867 32.1346C54.9544 29.0393 54.8905 28.816 56.1365 28.0501L57.1589 27.4438L57.5423 28.6245C57.734 29.2627 58.4369 30.8901 59.0759 32.1985C60.4178 35.0066 60.4817 35.7405 59.4593 37.719C59.044 38.6125 58.9162 39.0592 59.1718 38.8358C60.8652 37.4318 61.0569 34.6556 59.5871 32.1028C59.012 31.1135 58.373 29.6456 58.1494 28.8798C57.7021 27.4757 57.734 27.4438 58.5647 27.1566C59.3635 26.9013 59.4274 26.9333 59.651 28.0501C59.7469 28.6883 60.3859 30.1881 60.993 31.3688ZM95.7548 29.5499C97.5759 31.2731 98.151 35.5491 96.8091 37.336C96.3938 37.9424 96.2979 37.9742 96.4896 37.4637C97.6079 34.6875 96.2979 31.305 93.2307 29.0393C92.2403 28.3054 91.2817 27.731 91.0261 27.731C90.8025 27.731 90.5469 27.6034 90.4191 27.4438C90.0357 26.8056 94.8921 28.7202 95.7548 29.5499ZM90.7705 29.4861C90.6747 29.7414 90.7705 29.9328 90.9942 29.869C91.2178 29.8371 91.4095 30.2838 91.4734 30.9859C91.5693 31.9751 91.3776 32.3899 90.3552 33.5068L89.1411 34.8789L90.1954 34.145C92.1124 32.8048 92.5278 31.5603 91.6971 29.4861C91.5054 29.0393 91.793 29.167 92.6556 29.9648C93.3266 30.571 93.7419 30.8582 93.6141 30.6029C93.4224 30.2838 93.5822 30.3477 94.0295 30.7306C94.988 31.5603 96.0104 33.794 96.0104 35.0066C96.0104 36.3468 95.4353 37.4956 94.5087 38.1338L93.71 38.6444L94.4768 37.6232C95.3714 36.4106 95.4353 33.8578 94.6046 32.2623C93.8697 30.8263 93.7739 30.9859 94.2851 32.7409C94.8921 34.6875 94.8602 35.2619 94.0934 36.8574C93.6461 37.7509 92.8793 38.5486 91.6971 39.3464C89.205 41.0057 89.0133 41.4844 90.4191 43.0161C91.0581 43.7181 92.4 44.7393 93.3905 45.3136C95.5311 46.4943 97.6079 48.5366 97.6079 49.462C97.6079 50.0683 97.4801 50.1002 96.266 49.9088C93.7419 49.5258 89.7481 48.1856 88.4062 47.2602C86.9685 46.3029 85.1793 43.9096 84.5722 42.1226C84.0291 40.5271 84.1249 37.9742 84.7959 36.4745C85.1154 35.7724 86.1697 34.4003 87.1282 33.443C88.1187 32.4857 89.205 31.0816 89.5884 30.3477C90.2274 29.1031 91.1859 28.4011 90.7705 29.4861ZM88.6299 30.3477C88.4382 30.7625 87.3519 32.0389 86.2336 33.2196C85.0834 34.3684 83.9013 35.9639 83.5178 36.7297C83.0066 37.8147 82.9108 37.9104 83.0705 37.1446C83.1664 36.6021 83.5817 35.6767 83.9651 35.0066C84.7639 33.6983 87.5755 30.6029 87.9909 30.6029C88.1506 30.6029 88.3423 30.3796 88.4701 30.1243C88.566 29.869 88.7257 29.6456 88.8216 29.6456C88.9174 29.6456 88.8216 29.9648 88.6299 30.3477ZM72.495 40.3037C74.6996 41.3568 76.8722 40.8143 78.6614 38.8039L79.6199 37.6871L79.8116 39.3464C80.0672 41.9312 81.2494 44.6116 82.8788 46.3348C84.5083 48.0579 85.339 48.5685 88.3104 49.6216L90.3552 50.3236L88.7896 50.5789C87.927 50.7065 84.6042 50.7065 81.4091 50.5789C75.9456 50.3874 75.4983 50.4193 74.3801 51.0256C72.9423 51.7914 72.3672 51.8234 71.5365 51.1852C71.217 50.9299 70.8017 50.7384 70.61 50.7065C70.4502 50.7065 70.7378 50.9937 71.249 51.3447C72.4631 52.1425 73.134 52.1425 74.4759 51.3128C75.5622 50.6427 75.5942 50.6427 79.3324 51.1852C82.3357 51.6319 83.8693 51.6957 87.2241 51.4724C89.5245 51.3128 92.8154 51.2171 94.6046 51.249C97.512 51.2809 98.0232 51.3766 99.7166 52.2382C101.889 53.3551 102.816 54.2166 103.519 55.876C104.222 57.5672 104.126 59.9605 103.071 67.8424C101.314 80.9576 100.995 84.723 100.995 94.7428L100.963 104.156L102.464 108.464C103.263 110.826 104.317 114.272 104.797 116.123C106.298 122.122 110.037 134.822 111.506 139.003C112.305 141.236 112.944 143.502 112.944 144.044C112.944 145.417 115.085 153.362 115.82 154.798C116.363 155.851 116.459 156.649 116.459 160.255C116.459 164.499 116.459 164.499 115.596 165.329C114.222 166.573 109.046 170.051 108.567 170.051C107.704 170.051 108.311 168.966 109.749 167.881C112.561 165.775 114.605 163.605 114.414 162.903C114.318 162.521 114.158 161.053 114.03 159.617C113.871 157.862 113.679 156.936 113.391 156.84C113.104 156.713 112.944 156.075 112.912 154.99C112.88 153.458 112.848 153.394 112.593 154.256C112.433 154.766 112.209 156.649 112.113 158.404C111.922 161.404 111.251 163.605 110.452 164.116C110.292 164.212 110.068 162.393 109.941 160.063C109.749 156.745 109.525 155.341 108.854 153.458C108.183 151.48 108.024 150.426 107.992 147.555C107.928 143.31 107.736 142.736 103.327 132.78C101.602 128.855 99.1415 122.664 97.8954 119.027C96.6813 115.421 94.9241 110.985 94.0614 109.166L92.4639 105.88L92.7834 100.71C92.9751 97.8701 93.1988 90.2116 93.2946 83.6699C93.3905 77.1283 93.6141 71.0972 93.7739 70.2676C93.9656 69.4379 94.5087 67.9062 95.0199 66.8851C95.4992 65.8958 95.7867 65.0662 95.6909 65.0662C95.3394 65.0662 92.9432 67.7147 92.4959 68.5763L92.0805 69.3422L91.5373 68.2253C91.2178 67.619 90.5149 66.6936 89.9398 66.183C89.0452 65.3215 88.7257 65.2257 86.8087 65.2257C85.0195 65.2257 84.3485 65.3853 82.5913 66.3107C79.3004 68.0019 75.9776 70.4271 72.7826 73.4905C71.1212 75.0541 69.9071 76.0753 70.0029 75.7562C70.1627 75.3413 70.1307 75.2456 69.8432 75.4371C69.5556 75.5966 68.5971 74.8627 66.9676 73.2672C64.2519 70.5867 60.4178 67.5552 58.4689 66.566C56.456 65.5448 55.178 65.3534 53.7083 65.8639C52.5261 66.2788 52.3664 66.2788 52.0149 65.7682C51.4398 64.9385 50.5452 64.1089 50.4174 64.2365C50.3216 64.3003 50.4813 64.779 50.7369 65.2896C51.6635 67.0446 51.7274 68.3849 50.9606 70.3952C49.9062 73.1714 49.8104 76.3944 50.6411 80.2236C51.8552 85.776 52.2386 89.5734 52.4303 97.7743L52.6539 105.752L51.2162 109.9C49.427 115.07 48.7241 118.037 47.1266 127.196C46.4237 131.185 45.529 136.482 45.0817 138.907C44.2191 143.853 44.251 144.81 45.6888 149.022C46.4237 151.129 46.5195 151.99 46.6473 158.021C46.7432 161.691 46.871 164.818 46.9668 164.978C47.0946 165.137 46.9349 165.265 46.6793 165.265C46.0403 165.265 45.2095 164.02 45.2095 163.095C45.2095 161.659 44.2191 158.053 43.4842 156.84L42.7494 155.596L42.3979 158.117C42.0784 160.255 42.1104 160.989 42.5896 162.903C43.0689 164.882 43.3884 165.456 45.1456 167.403C46.2639 168.711 47.1266 169.956 47.1266 170.339C47.1266 171.009 47.0627 170.977 45.7846 169.988C43.1967 167.945 41.5353 166.063 40.8963 164.467C40.5768 163.574 39.81 162.01 39.2029 160.989L38.0846 159.074L38.7876 155.564C39.7461 150.65 40.0656 147.969 39.8739 146.501C39.778 145.799 39.8419 144.3 40.0336 143.183C40.4809 140.726 41.1838 132.046 41.8548 121.548C42.366 113.187 42.7494 109.613 43.4203 106.262C45.0498 98.4444 45.1456 89.1904 43.7718 72.5651C42.6216 58.2693 42.5896 55.7483 43.5481 53.9614C44.4427 52.302 46.5834 50.8661 48.8519 50.4193C49.7465 50.2278 52.3025 49.9406 54.5071 49.7811C59.9705 49.3344 63.0378 48.0579 65.434 45.2817C66.8718 43.5586 67.5747 41.612 67.7983 38.5167L67.99 36.0916L69.6834 37.9424C70.6419 38.9635 71.888 40.0165 72.495 40.3037ZM49.9701 40.559C49.7784 40.9419 49.4909 41.612 49.3311 42.0588L49.1075 42.8885L49.0755 41.963C49.0436 41.4525 49.2672 40.7505 49.5867 40.4314C50.2896 39.6655 50.4174 39.6974 49.9701 40.559ZM92.4639 40.7824C92.0166 41.3887 91.8249 42.0269 91.9208 42.5374C92.0486 43.2395 92.0166 43.3033 91.5054 43.0161C90.9622 42.7289 90.0676 41.4844 90.3232 41.3248C91.122 40.7505 92.7195 39.857 92.9112 39.857C93.039 39.857 92.8473 40.2718 92.4639 40.7824ZM99.5249 48.2813C99.9083 49.3024 99.493 50.9618 99.0137 50.3555C98.822 50.1002 98.5664 49.5258 98.4386 49.0471C98.3427 48.6004 97.8635 47.7388 97.3842 47.1964L96.5216 46.1752L97.8954 46.8453C98.6303 47.2283 99.3652 47.8665 99.5249 48.2813ZM52.5581 48.7281C52.1427 48.8876 51.344 48.2494 50.8967 47.4197C50.6411 46.9411 50.8647 47.0049 51.7274 47.7069C52.3664 48.2175 52.7178 48.6961 52.5581 48.7281ZM88.2784 67.0765C89.173 67.7786 90.2913 70.5548 90.451 72.5013C90.7386 75.4371 89.2369 80.6384 85.5946 89.4457C84.9556 91.0093 84.2847 92.9559 84.061 93.7536C83.7095 95.1896 83.6776 95.2215 82.3996 95.3172L81.0896 95.413L82.144 90.4349C83.1025 85.9356 84.8598 80.1917 86.6809 75.6604C87.0643 74.7669 87.288 74.0011 87.1921 74.0011C86.8726 74.0011 84.5083 79.362 83.422 82.6488C82.3357 85.9037 80.6743 93.2431 80.6743 94.8386C80.6743 95.4449 80.4506 95.7321 79.8116 95.9554L78.917 96.2745L79.8116 96.3065C80.5145 96.3384 80.7062 96.466 80.6104 96.8808C80.5145 97.3914 79.8436 97.519 75.722 97.8382C73.0701 98.0296 68.022 98.2849 64.4755 98.4444L57.9896 98.6678L57.9577 97.902C57.8938 97.168 57.8938 97.1361 57.766 97.8382C57.5423 98.955 57.0311 98.6997 57.0311 97.519C57.0311 95.4768 55.7212 88.7437 54.3154 83.5742C52.2066 75.7881 51.983 74.2245 52.6859 71.7354C52.9734 70.5867 53.5485 69.1188 53.9639 68.4168C54.571 67.3318 54.8266 67.1404 55.5934 67.2361C57.0631 67.3956 59.2676 68.672 62.7183 71.3525C67.2552 74.8946 69.5876 77.1602 69.332 77.7665C69.1722 78.1494 69.332 78.1175 69.8751 77.6389C75.8178 72.3418 77.8307 70.7781 81.6008 68.5763C84.9556 66.566 87.0324 66.1192 88.2784 67.0765ZM91.6652 95.7001C91.5693 99.306 91.4415 102.72 91.3456 103.327L91.1859 104.38L90.2274 103.103C88.0228 100.072 87.0643 98.1573 87.0643 96.6894C87.0643 95.1896 88.6938 90.1158 90.451 86.0632L91.3776 83.9252L91.6012 86.5419C91.6971 87.9778 91.729 92.0943 91.6652 95.7001ZM54.4432 95.8597C54.6029 97.6148 54.6349 99.6251 54.4751 100.327C54.2515 101.572 54.2195 101.54 54.1876 99.6889C54.1556 98.6359 54.0598 96.5617 53.9639 95.062C53.6764 91.3284 54.0598 91.9666 54.4432 95.8597ZM83.6137 96.3703C84.1569 96.6575 84.1888 96.7851 83.8373 97.0085C83.0705 97.4871 80.9938 97.3595 80.9938 96.8489C80.9938 96.4341 81.3452 96.2745 82.6871 96.0512C82.8469 96.0512 83.2622 96.1788 83.6137 96.3703ZM80.4826 98.7635C80.5784 99.0508 80.6743 99.7847 80.7062 100.423C80.7062 101.061 81.1216 102.88 81.6647 104.476C82.3357 106.55 82.5274 106.965 82.3996 105.911C82.2718 105.114 82.0162 103.965 81.7925 103.359C81.5689 102.72 81.2813 101.348 81.1535 100.231L80.9299 98.253H82.5274C83.9971 98.253 84.1249 98.3168 84.2847 99.1465C84.3805 99.657 85.6585 101.827 87.1602 104.029C90.5469 109.071 91.2817 110.347 92.4959 113.442C95.2436 120.303 95.8187 123.398 95.8187 131.599C95.8506 135.141 95.6589 139.322 95.4353 141.013C94.8921 144.874 92.9432 152.979 90.8983 159.808C88.1506 169.062 87.6075 172.094 86.2975 184.89C84.6042 201.387 84.4444 209.11 84.9556 251.902C85.1154 264.538 85.1154 274.781 84.9876 274.654C84.7 274.366 84.0929 271.526 82.9108 264.825C80.6743 251.965 79.6199 237.542 78.7892 207.227L78.5336 197.973L78.5017 207.865C78.4058 228.033 79.2046 243.892 81.3452 263.549C82.8469 277.557 83.5178 282.216 84.6681 287.322C85.9141 292.874 88.4701 302.32 89.0133 303.564C89.2369 304.011 89.3328 304.458 89.2689 304.522C89.205 304.586 88.3423 304.522 87.3838 304.362C85.1793 303.979 82.5913 304.203 77.5432 305.224C74.5718 305.83 73.4855 305.926 73.166 305.671C72.527 305.128 72.3672 303.118 72.0797 292.268L71.7921 282.536L71.856 293.321C71.888 302.767 71.8241 304.043 71.4087 303.884C70.2266 303.373 67.7664 303.437 64.188 304.043C59.7149 304.809 56.2963 304.937 56.456 304.33C60.961 287.673 66.2008 241.69 68.2137 200.941C69.1403 182.209 69.0764 174.391 67.7344 149.948C67.4788 145.129 67.0954 135.716 66.9357 129.047C66.744 122.377 66.4564 114.974 66.2967 112.613C66.073 109.358 66.0411 110.889 66.1689 118.835C66.3286 131.025 66.744 142.928 67.4788 154.256C68.0539 163.382 68.2776 187.538 67.8942 194.941C67.4469 203.111 66.9357 210.067 66.2967 216.641C65.9452 220.055 65.434 225.671 65.1784 229.086C64.188 241.69 62.8141 254.103 60.8652 268.016C58.4369 285.376 56.8714 294.183 56.1365 294.725C55.5934 295.172 54.9863 295.268 55.2419 294.885C55.6253 294.247 57.7021 284.003 58.1174 280.621C59.7149 268.08 60.6734 245.743 60.6734 221.268C60.7054 202.313 60.7054 202.632 58.9162 188.879C58.2772 183.869 56.9992 176.21 55.5614 168.615C51.5357 147.172 50.9606 142.8 50.9606 133.035C50.9606 121.962 51.8871 115.963 54.8585 107.986C55.4017 106.582 56.1365 104.124 56.5519 102.561C57.2228 99.9762 57.3506 99.6889 58.0855 99.5932C58.8523 99.4975 58.8523 99.4975 58.5647 101.189C58.405 102.114 57.766 104.444 57.127 106.326C56.5199 108.241 56.0726 109.868 56.1365 109.932C56.2324 109.996 57.095 107.667 58.0855 104.699L59.8747 99.3698L67.9581 98.8593C79.1726 98.1573 80.227 98.1253 80.4826 98.7635ZM44.0593 160.032C44.7303 162.68 44.6664 163.51 43.8996 161.85C43.1967 160.319 42.6855 157.255 43.2286 157.766C43.4203 157.925 43.8037 158.978 44.0593 160.032ZM113.551 162.138C113.583 162.872 113.455 163.031 112.784 163.031C111.858 163.031 111.858 163.031 112.465 161.531C112.72 160.925 112.976 159.936 112.976 159.393C113.008 158.564 113.072 158.627 113.295 159.84C113.423 160.638 113.551 161.659 113.551 162.138ZM49.6826 163.254C49.6826 163.542 48.6602 164.627 48.4046 164.627C48.0531 164.627 47.7336 163.669 47.9573 163.318C48.149 162.999 49.6826 162.935 49.6826 163.254ZM112.305 164.563C112.305 165.073 111.506 165.584 110.739 165.584L109.909 165.552L110.676 164.946C111.442 164.307 112.305 164.084 112.305 164.563ZM106.554 166.86C106.554 167.02 106.426 167.179 106.234 167.179C106.075 167.179 105.915 167.02 105.915 166.86C105.915 166.669 106.075 166.541 106.234 166.541C106.426 166.541 106.554 166.669 106.554 166.86ZM88.8535 190.538C88.7257 193.569 88.5021 200.079 88.3104 204.993C88.1506 209.907 87.6394 218.938 87.1921 225.065C86.7768 231.192 86.3934 237.095 86.3614 238.148C86.2656 242.392 85.8502 233.968 85.8183 226.692C85.7863 215.46 86.4253 205.312 88.0548 191.431C88.3743 188.527 88.6618 185.911 88.6618 185.592C88.6618 185.305 88.7577 185.049 88.8535 185.049C88.9494 185.049 88.9494 187.538 88.8535 190.538ZM57.4784 193.346C58.4369 201.324 58.6606 205.6 58.6606 216.162C58.6286 228.926 57.6062 243.158 56.0407 252.221C52.3025 273.952 47.9892 286.588 42.6216 291.47C41.4714 292.523 41.5992 292.236 43.3564 290.034C43.9954 289.237 44.9539 287.737 45.529 286.684C46.7751 284.45 46.4876 284.642 44.7622 287.258C42.8772 290.066 40.1614 292.683 38.1805 293.608C35.0494 295.044 28.9149 296.48 23.9627 296.895C22.7485 297.023 21.3747 297.15 20.9274 297.246C20.3203 297.374 20.2245 297.31 20.6079 297.055C20.8635 296.895 21.4705 296.736 21.9178 296.736C23.5154 296.736 27.8286 295.395 30.0012 294.247C35.944 291.056 40.2253 284.801 45.3373 271.909C49.4909 261.475 53.5805 244.945 55.5614 230.841C56.7116 222.608 56.8714 219.927 56.8714 204.451C56.8714 195.931 56.9033 188.942 56.9353 188.974C56.9353 189.006 57.1909 190.985 57.4784 193.346ZM91.5373 220.629C92.1444 228.958 93.1349 238.276 94.2531 245.839C94.5087 247.594 95.3075 253.146 96.0104 258.156C97.4162 268.367 99.5249 279.887 100.547 282.95C101.57 286.205 100.995 285.567 99.5888 281.993C96.0743 272.994 92.8793 260.964 91.729 252.54C90.9942 247.243 90.6108 240.892 90.5149 232.596C90.4191 224.459 90.6108 208.344 90.8025 210.418C90.8664 211.12 91.1859 215.715 91.5373 220.629ZM95.4033 276.792C98.5025 287.769 100.707 292.843 103.455 295.332C104.349 296.161 104.829 296.736 104.477 296.608C104.126 296.448 102.56 295.874 100.963 295.3L98.0871 294.247L97.3523 292.396C94.7963 286.078 92.9112 276.09 92.3361 266.102L92.1764 262.751L93.2946 268.016C93.9017 270.92 94.8602 274.845 95.4033 276.792ZM115.5 271.59C115.5 272.037 119.781 278.26 121.826 280.812C125.884 285.854 131.507 290.449 134.446 291.151C136.363 291.63 135.469 291.853 133.328 291.439C126.299 290.098 123.647 288.152 119.59 281.387C118.344 279.249 115.82 273.76 114.989 271.367C114.605 270.218 114.605 270.154 115.021 270.697C115.276 271.048 115.5 271.463 115.5 271.59ZM84.1888 277.908C88.1506 293.672 89.844 301.554 89.1411 300.82C88.8855 300.565 87.1921 294.661 85.7544 288.918C84.5403 284.163 82.8469 274.717 82.9427 273.281C82.9747 272.803 83.0386 272.835 83.1344 273.441C83.1983 273.888 83.6776 275.898 84.1888 277.908ZM92.0166 298.012C92.1124 298.172 92.0486 298.331 91.8888 298.331C91.6971 298.331 91.5373 298.172 91.5373 298.012C91.5373 297.821 91.6012 297.693 91.6652 297.693C91.761 297.693 91.9208 297.821 92.0166 298.012Z" fill="#28464E"/>
<path d="M85.9777 9.63829C86.5528 10.7232 87.5113 12.9889 88.0545 14.6482C88.5977 16.3076 89.2047 17.8073 89.3964 17.9988C89.6201 18.2222 89.652 18.1265 89.4603 17.6797C89.3325 17.3287 88.8852 15.8927 88.4379 14.4887C87.703 12.0954 85.786 8.17041 85.179 7.81939C85.0192 7.72366 85.3707 8.52142 85.9777 9.63829Z" fill="#28464E"/>
<path d="M71.3448 8.80841C71.5685 8.90414 71.8561 8.87223 71.9519 8.7765C72.0797 8.68077 71.888 8.58504 71.5365 8.61695C71.1851 8.61695 71.0892 8.71268 71.3448 8.80841Z" fill="#28464E"/>
<path d="M72.5588 29.2308C72.3671 29.6775 72.3991 29.7094 72.7186 29.4222C72.9422 29.1989 73.0381 28.9436 72.9422 28.8479C72.8464 28.7521 72.6547 28.9117 72.5588 29.2308Z" fill="#28464E"/>
<path d="M74.9232 29.3266C74.9232 29.4862 75.2108 29.6458 75.5942 29.6458C75.9456 29.6458 76.1373 29.4862 76.0415 29.3266C75.9456 29.1352 75.6261 29.0075 75.3705 29.0075C75.1149 29.0075 74.9232 29.1352 74.9232 29.3266Z" fill="#28464E"/>
<path d="M72.9422 31.4646C72.4949 31.5284 71.9198 31.8156 71.7281 32.0709C71.3767 32.4538 71.5364 32.5176 72.6547 32.4538C73.3576 32.4219 73.9646 32.2623 73.9646 32.1028C73.9646 31.9432 74.1563 31.9751 74.4119 32.1666C74.6675 32.39 75.4343 32.5176 76.1053 32.4538L77.3194 32.3261L76.3609 31.9113C75.1787 31.4326 74.0924 31.2731 72.9422 31.4646Z" fill="#28464E"/>
<path d="M72.6868 34.2407C73.1022 34.6556 75.4984 34.6237 75.9138 34.2088C76.1374 33.9855 75.5623 33.8897 74.3163 33.9216C72.9744 33.9216 72.4632 34.0174 72.6868 34.2407Z" fill="#28464E"/>
<path d="M57.9577 40.0807C57.5423 40.5913 57.5742 40.6232 58.0855 40.2084C58.373 39.985 58.6286 39.7297 58.6286 39.6659C58.6286 39.4106 58.373 39.5701 57.9577 40.0807Z" fill="#28464E"/>
<path d="M90.9623 30.9221C90.9623 31.3689 91.0262 31.5284 91.122 31.305C91.1859 31.1136 91.1859 30.7306 91.122 30.5073C91.0262 30.3158 90.9623 30.4754 90.9623 30.9221Z" fill="#28464E"/>
<path d="M85.882 40.4953C85.882 41.6441 85.9459 42.0908 86.0098 41.5164C86.0737 40.9739 86.0737 40.0166 86.0098 39.4422C85.9459 38.8998 85.882 39.3465 85.882 40.4953Z" fill="#28464E"/>
<path d="M86.1058 42.9203C86.1058 43.0799 86.3295 43.5266 86.5851 43.8777C86.8407 44.1968 87.0643 44.3244 87.0643 44.1329C87.0643 43.9734 86.8407 43.5266 86.5851 43.1756C86.3295 42.8565 86.1058 42.7289 86.1058 42.9203Z" fill="#28464E"/>
<path d="M87.3835 45.1862C87.3835 45.5691 88.6296 46.6859 89.6201 47.1965C90.5466 47.6752 93.518 48.5048 93.7097 48.3134C93.7736 48.2496 92.9748 47.9624 91.8885 47.6752C90.7064 47.3242 89.4603 46.6859 88.6616 46.0158C87.9586 45.4095 87.3835 45.0585 87.3835 45.1862Z" fill="#28464E"/>
<path d="M78.7893 40.8142C78.5656 41.7715 77.8627 43.5266 77.2876 44.7073C76.7125 45.9199 76.2652 46.8772 76.3291 46.8772C76.393 46.8772 76.8083 46.3028 77.2556 45.6327C78.278 44.101 79.4602 40.6866 79.3324 39.7293C79.2685 39.3144 79.0449 39.7293 78.7893 40.8142Z" fill="#28464E"/>
<path d="M56.1366 50.2279C56.6158 50.7384 60.1942 51.3447 62.7183 51.3447C65.7855 51.3447 69.971 50.7384 69.5557 50.3236C69.4278 50.196 68.4374 50.2279 67.383 50.4193C65.5619 50.7703 59.5872 50.6427 57.0312 50.196C56.4241 50.0683 56.0088 50.1002 56.1366 50.2279Z" fill="#28464E"/>
<path d="M99.7485 104.125C99.5888 104.795 99.5568 105.433 99.6527 105.529C100.036 105.88 100.196 105.305 100.1 104.125L100.004 102.88L99.7485 104.125Z" fill="#28464E"/>
<path d="M55.146 76.9051C55.114 77.0328 55.3377 77.7348 55.6252 78.5006C56.9672 82.3618 58.5966 90.5628 58.8522 94.9664C58.9481 96.7853 59.1717 98.2532 59.3634 98.2532C60.1622 98.2532 58.6925 87.3079 57.1908 82.1384C56.424 79.5537 55.2099 76.4265 55.146 76.9051Z" fill="#28464E"/>
<path d="M57.4147 95.7004C57.4147 96.3067 57.4786 96.562 57.5744 96.2429C57.6383 95.9557 57.6383 95.4452 57.5744 95.1261C57.4786 94.8389 57.4147 95.0941 57.4147 95.7004Z" fill="#28464E"/>
<path d="M82.6235 108.018C82.6235 108.369 82.7193 108.464 82.8152 108.209C82.911 107.986 82.8791 107.698 82.7832 107.603C82.6874 107.475 82.5915 107.667 82.6235 108.018Z" fill="#28464E"/>
<path d="M71.8239 279.185C71.8239 280.142 71.8878 280.557 71.9517 280.047C72.0156 279.568 72.0156 278.802 71.9517 278.291C71.8878 277.813 71.8239 278.228 71.8239 279.185Z" fill="#28464E"/>
<path d="M104.669 261.188C104.669 261.539 104.764 261.634 104.86 261.379C104.956 261.156 104.924 260.869 104.828 260.773C104.733 260.645 104.637 260.837 104.669 261.188Z" fill="#28464E"/>
<path d="M104.988 262.304C104.924 263.07 106.969 270.25 108.439 274.399C111.794 284.099 116.107 291.79 120.388 295.683C122.625 297.725 122.721 297.342 120.548 295.108C118.312 292.843 115.372 288.503 113.423 284.61C110.995 279.791 107.385 270.091 105.468 263.389C105.212 262.496 105.02 262.017 104.988 262.304Z" fill="#28464E"/>
<path d="M97.3843 301.107C97.8635 301.171 98.5664 301.171 98.9818 301.107C99.3652 301.044 98.9818 300.98 98.0872 300.98C97.2245 300.98 96.8731 301.044 97.3843 301.107Z" fill="#28464E"/>
<path d="M96.4255 302.384C98.3106 302.448 101.378 302.448 103.295 302.384C105.18 302.352 103.614 302.288 99.8442 302.288C96.0741 302.288 94.5085 302.352 96.4255 302.384Z" fill="#28464E"/>
<path d="M34.1229 303.66C34.4104 303.724 34.9216 303.724 35.2411 303.66C35.5287 303.564 35.2731 303.501 34.666 303.501C34.059 303.501 33.8034 303.564 34.1229 303.66Z" fill="#28464E"/>
<path d="M115.276 303.66C115.564 303.724 116.011 303.724 116.235 303.66C116.427 303.564 116.203 303.501 115.66 303.501C115.149 303.501 114.957 303.564 115.276 303.66Z" fill="#28464E"/>
</svg>
